<svg width="186" height="32" viewBox="0 0 186 32" fill="none" xmlns="http://www.w3.org/2000/svg">
<path d="M74.9445 15.4288C74.9817 17.549 74.423 19.6371 73.332 21.4555C73.0671 21.89 72.7741 22.3067 72.4547 22.703C72.4323 22.6845 72.4099 22.6674 72.3875 22.6489C71.2009 21.6817 69.9497 20.7966 68.6425 19.9999C68.5806 19.9617 68.5187 19.9249 68.4568 19.8879C68.3422 19.8182 68.2262 19.7496 68.1103 19.6824C68.3935 18.2615 68.5343 16.8158 68.5305 15.367C68.536 13.7193 68.3445 12.0769 67.9602 10.4746C67.6509 9.06485 67.0377 7.73954 66.1634 6.5912C65.8027 6.11211 65.3353 5.7236 64.7984 5.45653C64.2614 5.18946 63.6697 5.05124 63.07 5.05264C62.4703 5.05405 61.8792 5.19513 61.3435 5.46471C60.8078 5.73429 60.3424 6.12493 59.984 6.60571C59.1092 7.76541 58.4966 9.10117 58.1884 10.5207C57.8005 12.1487 57.6087 13.8172 57.6168 15.4908C57.6168 15.6067 57.6181 15.7213 57.6194 15.8359C57.626 16.3036 57.6483 16.7659 57.6839 17.2217C57.6931 17.335 57.7024 17.4483 57.7129 17.5616C57.7327 17.779 57.7563 17.995 57.7827 18.2097L57.7866 18.2374C57.7999 18.3481 57.8157 18.46 57.8315 18.5707C57.8447 18.6668 57.8591 18.763 57.8749 18.8591C57.8789 18.8921 57.8841 18.9236 57.8894 18.9552C57.9026 19.0329 57.9158 19.112 57.9303 19.1898C57.933 19.2108 57.9369 19.2319 57.9409 19.253C57.9791 19.4663 58.0199 19.6772 58.0647 19.8879C58.1042 20.0697 58.1449 20.2502 58.1884 20.4307C58.2029 20.4913 58.2187 20.5531 58.2345 20.6124L58.2425 20.6428C58.2728 20.7666 58.307 20.8892 58.3413 21.009L58.3465 21.0273C58.3768 21.1328 58.4084 21.2382 58.4427 21.341C58.7708 22.427 59.293 23.4445 59.984 24.3443C60.3358 24.8289 60.7981 25.2227 61.3326 25.4928C61.8671 25.7629 62.4583 25.9016 63.0571 25.8974C63.5918 25.9054 64.1219 25.7979 64.6112 25.5821C65.1004 25.3664 65.5374 25.0475 65.892 24.6473C65.9855 24.5472 66.0751 24.4406 66.1634 24.3286C66.3463 24.0941 66.516 23.8494 66.6718 23.5961C67.5549 24.1602 68.4079 24.7701 69.2274 25.4232C69.1575 25.4641 69.0878 25.5023 69.018 25.5405C68.6595 25.7321 68.2915 25.9052 67.9154 26.0594C66.3728 26.6849 64.7217 26.9996 63.0571 26.9855C60.9808 27.0086 58.9317 26.5119 57.0964 25.5405C55.3164 24.5984 53.8295 23.1853 52.7981 21.4555C52.2979 20.6278 51.912 19.7363 51.6508 18.8052C51.4433 18.0676 51.3087 17.3112 51.249 16.5473C51.2173 16.181 51.2029 15.8084 51.2029 15.429C51.1658 13.3306 51.7185 11.264 52.7981 9.46427C53.8364 7.74809 55.3223 6.34685 57.0964 5.41091C58.9398 4.46127 60.9835 3.96582 63.0571 3.96582C65.1308 3.96582 67.1745 4.46127 69.018 5.41091C70.8373 6.3674 72.3548 7.81079 73.4013 9.57981C74.4479 11.3488 74.9822 13.3738 74.9445 15.4288Z" fill="#E0DBB7"/>
<path d="M95.8138 4.25341V18.2873C95.8803 20.0032 95.5105 21.708 94.7389 23.2422C93.9207 24.6018 92.675 25.652 91.1967 26.2286C89.6711 26.7879 88.0538 27.0552 86.4294 27.0164C84.8644 27.026 83.3147 26.7083 81.8795 26.0841C80.4292 25.4384 79.215 24.3587 78.4045 22.9937C77.5087 21.5545 77.0608 19.7062 77.0608 17.4489V4.25328C77.061 4.2455 77.0618 4.23784 77.0634 4.23022H82.9346C82.9362 4.23784 82.9371 4.2455 82.9372 4.25328V18.0082C82.9372 20.2444 83.3795 21.9163 84.2638 23.0241C84.7233 23.5816 85.3078 24.0229 85.9701 24.3117C86.6323 24.6006 87.3534 24.7289 88.0747 24.6863C88.8186 24.7169 89.5607 24.5901 90.2523 24.3144C90.9439 24.0387 91.5696 23.6203 92.0885 23.0863C93.1067 22.02 93.6161 20.4101 93.6165 18.2568V4.25328C93.6163 4.24554 93.6168 4.23789 93.6179 4.23022H95.4173C95.4186 4.23754 95.8138 4.24609 95.8138 4.25341Z" fill="#E0DBB7"/>
<path d="M165.762 4.25341V18.2873C165.829 20.0032 165.459 21.708 164.687 23.2422C163.869 24.6018 162.623 25.652 161.145 26.2286C159.619 26.7879 158.002 27.0552 156.378 27.0164C154.813 27.026 153.263 26.7083 151.828 26.0841C150.377 25.4384 149.163 24.3587 148.353 22.9937C147.457 21.5545 147.009 19.7062 147.009 17.4489V4.25328C147.009 4.2455 147.01 4.23784 147.012 4.23022H152.883C152.884 4.23784 152.885 4.2455 152.885 4.25328V18.0082C152.885 20.2444 153.328 21.9163 154.212 23.0241C154.672 23.5816 155.256 24.0229 155.918 24.3117C156.581 24.6006 157.302 24.7289 158.023 24.6863C158.767 24.7169 159.509 24.5901 160.201 24.3144C160.892 24.0387 161.518 23.6203 162.037 23.0863C163.055 22.02 163.564 20.4101 163.565 18.2568V4.25328C163.565 4.24554 163.565 4.23789 163.566 4.23022H165.366C165.367 4.23754 165.762 4.24609 165.762 4.25341Z" fill="#E0DBB7"/>
<path d="M185 17.4484C184.596 16.566 183.999 15.7855 183.254 15.1643C182.257 14.3361 181.157 13.6417 179.98 13.0987C179.308 12.8089 178.581 12.4879 177.797 12.1357C176.678 11.6602 175.788 11.2408 175.127 10.8777C174.52 10.5572 173.974 10.1313 173.516 9.61969C173.114 9.17792 172.893 8.60185 172.894 8.00477C172.914 7.47314 173.102 6.96156 173.432 6.54393C173.807 6.08072 174.3 5.72669 174.858 5.51897C175.55 5.25681 176.286 5.13027 177.025 5.1462C178.569 5.1462 180.378 5.41496 181.563 6.0736C182.564 6.66666 183.492 7.37398 184.33 8.18129L184.48 5.51897L183.808 5.27004C182.69 4.88853 181.552 4.56718 180.399 4.30719C179.278 4.07204 178.136 3.95758 176.991 3.96591C175.333 3.92523 173.684 4.21594 172.14 4.82091C170.918 5.28826 169.853 6.08982 169.066 7.13402C168.376 8.09647 167.991 9.24346 167.958 10.4272C167.906 11.1327 168.005 11.8412 168.248 12.5054C168.491 13.1696 168.874 13.7743 169.369 14.279C170.61 15.4688 172.069 16.4076 173.666 17.044C173.801 17.1172 173.942 17.1798 174.087 17.231C174.241 17.2853 174.392 17.3474 174.54 17.4169C175.794 17.9965 176.812 18.504 177.596 18.9396C178.339 19.3415 179.004 19.8728 179.56 20.5085C180.07 21.0782 180.361 21.8099 180.383 22.574C180.428 23.029 180.358 23.4879 180.179 23.9085C180 24.3292 179.717 24.6979 179.358 24.9807C178.534 25.5733 177.535 25.8741 176.521 25.8356C171.545 25.9066 169.1 22.4641 167.725 21.0595C167.083 23.0733 164.676 26.3985 162.223 27.7931C158.234 30.0609 153.335 30.404 148.893 29.2685C147.413 28.9028 145.971 28.3959 144.587 27.7549C143.032 27.0429 141.543 26.1934 140.139 25.2165C139.429 24.7173 134.487 21.1091 132.625 20.1976C131.663 19.7211 130.674 19.3023 129.662 18.9435C130.26 18.8672 130.849 18.7331 131.421 18.5431C131.708 18.447 131.99 18.3357 132.265 18.2098C133.44 17.6799 134.429 16.8094 135.103 15.711C135.831 14.4659 136.192 13.04 136.143 11.5983C136.177 10.2349 135.841 8.88776 135.17 7.70043C134.537 6.61358 133.605 5.73229 132.484 5.16207C131.243 4.54876 129.871 4.24454 128.487 4.27545H118.465V26.6431H124.261V23.3591C124.257 23.2853 124.256 23.2103 124.256 23.1339L124.257 22.0524H124.256V5.61517H126.506C127.092 5.61099 127.666 5.77821 128.159 6.09629C128.651 6.41436 129.039 6.86938 129.276 7.40538C129.963 8.81929 130.292 10.3805 130.234 11.9514C130.234 13.8417 129.926 15.331 129.311 16.4195C129.075 16.907 128.708 17.3186 128.25 17.6072C127.792 17.8957 127.262 18.0497 126.721 18.0517C126.401 17.97 126.078 17.8937 125.755 17.8212V19.6431C129.401 20.6087 133.088 23.1298 136.22 25.4364C136.977 25.9937 137.898 26.6839 138.679 27.1937C144 30.6845 150.768 32.7119 157.182 31.2576C160.013 30.5922 162.651 29.2766 164.887 27.4151C165.862 26.5973 166.713 25.6418 167.413 24.5788C170.147 26.2884 173.3 27.2101 176.524 27.2424C178.08 27.2029 179.615 26.8787 181.054 26.2861C182.291 25.8449 183.375 25.0576 184.177 24.0178C184.992 22.9033 185.438 21.5622 185.453 20.1818C185.512 19.2481 185.357 18.3133 185 17.4484Z" fill="#E0DBB7"/>
<path d="M144.284 4.22986V26.171C142.258 25.2565 140.226 23.4782 138.619 22.4367V4.22986H144.284Z" fill="#E0DBB7"/>
<path d="M53.1869 26.6431H46.9179L45.6415 23.7147C45.598 23.5896 45.5453 23.4579 45.4821 23.3195L44.4336 20.9259L43.904 19.7168C41.1085 20.5044 38.493 21.8282 36.2031 23.6146C35.5612 24.1184 34.9498 24.6599 34.3721 25.2362C33.9177 25.6867 33.4843 26.1557 33.0719 26.6431H31.4977L32.6082 24.0256L37.1673 13.2791L39.109 8.73846L41.0165 4.27539H43.2994L46.9456 12.5678L46.9627 12.606L48.2234 15.4711C46.3472 15.7264 44.5048 16.1867 42.729 16.8437C42.7053 16.8529 42.6816 16.8609 42.6578 16.8701L42.5248 16.5684L40.2788 11.4442L39.3448 13.6243L39.3251 13.669L36.5206 20.2134L35.9238 21.6058L35.8804 21.7072L35.36 22.9205C37.6019 20.7773 40.2659 19.1248 43.1821 18.0687C44.9861 17.4019 46.862 16.9489 48.7714 16.7186L49.6856 18.7985L50.252 20.0869L51.6602 23.2879C51.7619 23.5223 51.8763 23.751 52.0028 23.9729L52.0067 23.9795L53.1869 26.6431Z" fill="#E0DBB7"/>
<path d="M32.5013 26.452L32.4605 26.5482L32.446 26.5389C32.4645 26.5099 32.4816 26.481 32.5013 26.452Z" fill="#E0DBB7"/>
<path d="M117.734 26.6431H111.465L110.189 23.7147C110.145 23.5896 110.092 23.4579 110.029 23.3195L108.62 20.1001C106.546 20.8435 104.562 21.8146 102.702 22.9955C102.133 23.342 101.568 23.7727 101.022 24.1507C100.861 24.2732 100.057 24.9187 99.882 25.0544C99.4565 25.4101 98.9126 25.9198 98.4462 26.3439C98.3395 26.4402 98.2368 26.5324 98.1407 26.618C98.1314 26.6259 98.1222 26.6352 98.113 26.6431C95.4679 29.0682 92.2274 31.0612 88.5693 31.7001L87.9566 31.8094L87.3389 31.8818C86.9476 31.9358 86.4799 31.9556 86.0966 31.9859C84.8437 32.0313 83.5893 31.967 82.3476 31.7937C79.8588 31.421 77.4454 30.6534 75.1986 29.52C73.4555 28.63 71.8147 27.5527 70.305 26.3071C70.2247 26.2413 70.1443 26.1754 70.0653 26.1083C69.7886 25.8751 69.5093 25.6468 69.2274 25.4232C68.4079 24.7701 67.555 24.1603 66.6719 23.5962C66.5863 23.5396 66.5006 23.4855 66.4137 23.4315C66.1331 23.2523 65.8473 23.0785 65.5588 22.9112C63.6453 21.815 61.6138 20.9391 59.5031 20.3003C59.4873 20.2423 59.4728 20.1844 59.4584 20.1251C59.4175 19.9539 59.378 19.7839 59.3424 19.6166C59.195 18.9226 59.0876 18.2206 59.021 17.5142C61.6648 18.1275 64.2182 19.0799 66.6178 20.3478C67.0144 20.5585 67.4048 20.7798 67.789 21.0117C67.8496 21.0472 67.9101 21.0841 67.9707 21.1209C69.2292 21.8878 70.4334 22.7403 71.5748 23.6726C71.9186 23.9452 72.2611 24.2206 72.6022 24.4946C73.5797 25.281 74.5571 26.0635 75.5899 26.7814C77.573 28.2653 79.771 29.438 82.1078 30.2591C83.8594 30.8333 85.7088 31.0481 87.5454 30.8908C89.382 30.7335 91.168 30.2073 92.7964 29.3436C93.0441 29.2171 93.2904 29.0853 93.5328 28.9456C94.422 28.2238 95.4335 27.1067 96.598 24.7791C98.9691 20.0369 103.656 8.73846 103.656 8.73846L105.564 4.27551H107.846L111.493 12.5678L111.51 12.6061L113.068 16.1496C111.227 16.6025 109.445 17.2696 107.759 18.1373L107.072 16.5685L104.826 11.4442L103.892 13.6244L103.872 13.6691L100.471 21.6058L100.427 21.7072L99.7359 23.3195C99.7306 23.334 99.7253 23.3472 99.72 23.3618L99.7188 23.3656L99.3077 24.3286C101.926 22.0625 104.904 20.2484 108.119 18.9607C109.869 18.194 111.711 17.6556 113.599 17.3588L114.2 18.7209L116.207 23.288C116.309 23.5224 116.423 23.751 116.55 23.9729L116.554 23.9795L117.734 26.6431Z" fill="#E0DBB7"/>
<path d="M38.7903 4.27634L33.1206 17.6403L31.1789 22.181L29.2716 26.6439H26.9887L23.3425 18.3516L23.3253 18.3134L21.4034 13.9426C21.4007 13.936 21.3971 13.928 21.3942 13.9215C13.4016 -3.73355 0 1.64303 0 1.64303V0.7579C0 0.7579 9.04821 -1.87388 17.3623 2.67097C24.2158 6.41743 28.3824 15.7618 30.0093 19.4752L30.9433 17.2952L30.963 17.2503L34.3641 9.315L34.4077 9.21223L35.0993 7.59991C35.1045 7.5854 35.1097 7.57225 35.115 7.55776L35.1164 7.55379L36.5167 4.27634H38.7903Z" fill="#E0DBB7"/>
</svg>
