 <svg xmlns="http://www.w3.org/2000/svg" width="288" height="73" viewBox="0 0 288 73" fill="none">
                        <path d="M116.378 23.9694C116.435 27.2617 115.568 30.5042 113.874 33.3278C113.462 34.0025 113.007 34.6497 112.511 35.265C112.477 35.2363 112.442 35.2098 112.407 35.1811C110.565 33.6791 108.621 32.3047 106.592 31.0675C106.495 31.0082 106.399 30.951 106.303 30.8936C106.125 30.7853 105.945 30.6789 105.765 30.5745C106.205 28.368 106.424 26.1232 106.418 23.8733C106.426 21.3147 106.129 18.7642 105.532 16.2761C105.052 14.087 104.1 12.029 102.742 10.2458C102.182 9.50185 101.456 8.8986 100.622 8.48388C99.7886 8.06916 98.8696 7.85437 97.9384 7.85655C97.0072 7.85873 96.0893 8.07781 95.2575 8.49643C94.4257 8.91505 93.7028 9.5217 93.1462 10.2683C91.7879 12.0691 90.8366 14.1433 90.3581 16.3477C89.7558 18.8758 89.4577 21.4668 89.4703 24.0656C89.4703 24.2456 89.4724 24.4235 89.4744 24.6015C89.4846 25.3277 89.5194 26.0456 89.5746 26.7534C89.589 26.9294 89.6033 27.1052 89.6197 27.2811C89.6503 27.6187 89.6872 27.9541 89.7281 28.2875L89.7342 28.3306C89.7547 28.5024 89.7792 28.6762 89.8038 28.848C89.8242 28.9974 89.8467 29.1467 89.8713 29.296C89.8774 29.3471 89.8856 29.3963 89.8938 29.4453C89.9142 29.566 89.9347 29.6887 89.9572 29.8095C89.9613 29.8422 89.9674 29.8749 89.9735 29.9077C90.0329 30.239 90.0963 30.5663 90.1658 30.8936C90.2272 31.1758 90.2906 31.4561 90.3581 31.7364C90.3806 31.8305 90.4052 31.9266 90.4297 32.0186C90.4338 32.035 90.4379 32.0493 90.442 32.0657C90.489 32.258 90.5422 32.4482 90.5954 32.6343L90.6036 32.663C90.6506 32.8267 90.6997 32.9903 90.7529 33.1499C91.2624 34.8363 92.0733 36.4164 93.1462 37.8137C94.4165 39.4215 96.0072 40.2254 97.9185 40.2254C98.7487 40.2379 99.5719 40.0708 100.332 39.7358C101.091 39.4007 101.77 38.9056 102.321 38.2841C102.466 38.1287 102.605 37.963 102.742 37.7891C103.026 37.425 103.29 37.0453 103.531 36.6518C104.903 37.5278 106.227 38.4748 107.5 39.489C107.391 39.5524 107.283 39.6118 107.175 39.6711C106.618 39.9686 106.046 40.2376 105.462 40.477C103.067 41.4484 100.503 41.937 97.9185 41.915C94.6942 41.9509 91.5122 41.1795 88.6623 39.6711C85.8982 38.2082 83.5893 36.0139 81.9877 33.3278C81.211 32.0425 80.6117 30.6581 80.206 29.2122C79.8838 28.0667 79.6749 26.8924 79.5821 25.7061C79.533 25.1374 79.5105 24.5586 79.5105 23.9694C79.4529 20.7109 80.3112 17.5018 81.9877 14.7071C83.6001 12.0422 85.9074 9.86634 88.6623 8.41296C91.5249 6.93831 94.6984 6.16895 97.9185 6.16895C101.139 6.16895 104.312 6.93831 107.175 8.41296C110 9.89825 112.356 12.1395 113.981 14.8865C115.606 17.6335 116.436 20.7782 116.378 23.9694Z" fill="#96402B" />
                        <path d="M148.784 6.61651V28.4091C148.784 31.5296 148.227 34.0944 147.114 36.1034C146.002 38.1131 144.026 39.7133 141.614 40.7408C139.593 41.602 136.784 41.9641 134.211 41.9641C131.781 41.9789 129.374 41.4858 127.146 40.5164C124.894 39.5138 123.008 37.837 121.75 35.7174C120.359 33.4825 119.663 30.6124 119.663 27.1071V6.61651C119.663 6.60443 119.665 6.59239 119.667 6.58057H128.784C128.787 6.59239 128.788 6.60443 128.788 6.61651V27.9757C128.788 31.4482 129.475 34.0445 130.848 35.7647C132.221 37.4867 134.193 38.3471 136.766 38.3458C139.339 38.3458 141.417 37.5176 142.999 35.8612C144.58 34.2054 145.371 31.7055 145.372 28.3617V6.61651C145.371 6.60449 145.372 6.59247 145.374 6.58057H148.168C148.17 6.59195 148.784 6.60515 148.784 6.61651Z" fill="#96402B" />
                        <path d="M257.404 6.61651V28.4091C257.404 31.5296 256.847 34.0944 255.735 36.1034C254.622 38.1131 252.646 39.7133 250.234 40.7408C248.213 41.602 245.404 41.9641 242.831 41.9641C240.401 41.9789 237.994 41.4858 235.766 40.5164C233.514 39.5138 231.628 37.837 230.37 35.7174C228.979 33.4825 228.283 30.6124 228.283 27.1071V6.61651C228.283 6.60443 228.285 6.59239 228.287 6.58057H237.404C237.407 6.59239 237.408 6.60443 237.408 6.61651V27.9757C237.408 31.4482 238.095 34.0445 239.468 35.7647C240.841 37.4867 242.813 38.3471 245.386 38.3458C247.959 38.3458 250.037 37.5176 251.619 35.8612C253.2 34.2054 253.991 31.7055 253.992 28.3617V6.61651C253.991 6.60449 253.992 6.59247 253.994 6.58057H256.788C256.79 6.59195 257.404 6.60515 257.404 6.61651Z" fill="#96402B" />
                        <path d="M287.278 27.1059C286.65 25.7357 285.723 24.5237 284.565 23.5589C283.018 22.2729 281.309 21.1946 279.482 20.3514C278.439 19.9014 277.309 19.4029 276.093 18.8561C274.354 18.1177 272.972 17.4666 271.946 16.9027C271.003 16.405 270.156 15.7435 269.445 14.9491C268.821 14.2631 268.477 13.3685 268.479 12.4413C268.51 11.6158 268.802 10.8213 269.314 10.1728C269.896 9.45351 270.662 8.90387 271.529 8.58131C272.603 8.17421 273.746 7.97766 274.894 8.0024C277.291 8.0024 280.1 8.41971 281.941 9.44248C283.495 10.3634 284.936 11.4617 286.237 12.7154L286.47 8.58132L285.427 8.19478C283.69 7.60236 281.923 7.10321 280.133 6.69947C278.393 6.33431 276.619 6.15668 274.841 6.1696C271.922 6.1696 269.411 6.61214 267.307 7.49722C265.202 8.38086 263.612 9.57819 262.535 11.0892C261.464 12.5838 260.864 14.3649 260.815 16.2031C260.733 17.2985 260.886 18.3988 261.264 19.4302C261.642 20.4617 262.236 21.4006 263.005 22.1843C264.568 23.7941 266.792 25.2253 269.678 26.4779C269.888 26.5916 270.106 26.6887 270.33 26.7684C270.57 26.8526 270.805 26.9489 271.034 27.0568C272.982 27.9569 274.563 28.745 275.78 29.4214C276.933 30.0455 277.966 30.8705 278.83 31.8577C279.621 32.7424 280.074 33.8786 280.108 35.0652C280.176 36.6729 279.645 37.9187 278.517 38.8024C277.388 39.6881 275.919 40.1041 274.111 40.1299C266.383 40.2401 262.588 34.8945 260.452 32.7134C259.455 35.8406 255.718 41.0041 251.908 43.1696C245.713 46.6911 238.107 47.2239 231.209 45.4606C228.91 44.8927 226.671 44.1057 224.522 43.1103C222.107 42.0047 219.795 40.6856 217.615 39.1686C216.512 38.3933 208.839 32.7905 205.947 31.375C204.453 30.6351 202.917 29.9848 201.346 29.4276C202.274 29.3091 203.189 29.1008 204.077 28.8058C204.523 28.6565 204.961 28.4837 205.388 28.2882C207.213 27.4654 208.748 26.1135 209.794 24.4078C210.872 22.6773 211.411 20.5486 211.41 18.0216C211.463 15.9044 210.941 13.8125 209.899 11.9688C208.916 10.2811 207.468 8.91247 205.728 8.027C203.8 7.07463 201.671 6.60233 199.522 6.65034H183.959V41.3839H192.959V36.2843C192.953 36.1697 192.951 36.0532 192.951 35.9345L192.953 34.2551H192.951V8.73065H196.445C198.323 8.73065 199.757 9.65731 200.747 11.5106C201.739 13.368 202.235 15.7211 202.234 18.5698C202.234 21.5052 201.756 23.818 200.8 25.5083C199.855 27.1775 198.514 28.0223 196.778 28.0428C196.281 27.9159 195.78 27.7973 195.279 27.6848V30.5138C200.941 32.0132 206.667 35.9283 211.529 39.5101C212.705 40.3754 214.135 41.4472 215.348 42.2389C223.61 47.6596 234.12 50.8077 244.08 48.5494C248.517 47.5553 253.127 45.1351 256.044 42.5826C257.559 41.3127 258.88 39.829 259.967 38.1783C265.552 41.6348 271.295 42.3975 274.116 42.3145C276.532 42.2531 278.915 41.7498 281.149 40.8296C283.07 40.1445 284.754 38.9218 285.999 37.3071C287.216 35.7157 287.877 33.7301 287.982 31.3504C288.072 29.9005 287.831 28.449 287.278 27.1059Z" fill="#96402B" />
                        <path d="M224.051 6.5791V40.6504C220.905 39.2303 217.749 36.4689 215.255 34.8516V6.5791H224.051Z" fill="#96402B" />
                        <path d="M82.5912 41.383H72.8564L70.8742 36.8356C70.8067 36.6414 70.7249 36.4368 70.6267 36.2219L68.9985 32.5052L68.1762 30.6274C63.8353 31.8504 59.7737 33.9062 56.2178 36.6802C55.2211 37.4626 54.2716 38.3034 53.3745 39.1983C52.6688 39.8978 51.9958 40.6261 51.3556 41.383H48.9111L50.6355 37.3184L57.7152 20.6308L60.7303 13.5797L63.6923 6.64941H67.2372L72.8993 19.5262L72.9259 19.5855L74.8835 24.0346C71.9701 24.431 69.109 25.1458 66.3515 26.1661C66.3147 26.1804 66.2779 26.1926 66.2411 26.2069L66.0344 25.7385L62.5468 17.7813L61.0965 21.1668L61.0658 21.2363L56.7108 31.3986L55.7842 33.5607L55.7167 33.7182L54.9087 35.6022C58.39 32.2742 62.5268 29.7083 67.0552 28.0684C69.8565 27.033 72.7694 26.3293 75.7345 25.9717L77.1541 29.2016L78.0337 31.2022L80.2204 36.1729C80.3783 36.5368 80.5558 36.8919 80.7522 37.2365L80.7584 37.2468L82.5912 41.383Z" fill="#96402B" />
                        <path d="M50.4697 41.0864L50.4063 41.2357L50.3838 41.2215C50.4124 41.1764 50.439 41.1314 50.4697 41.0864Z" fill="#96402B" />
                        <path d="M182.824 41.383H173.089L171.107 36.8356C171.039 36.6414 170.958 36.4368 170.859 36.2219L168.671 31.2226C165.451 32.3771 162.369 33.885 159.482 35.7187C158.598 36.2568 157.721 36.9257 156.872 37.5127C156.622 37.703 155.374 38.7053 155.102 38.916C154.442 39.4683 153.597 40.2599 152.873 40.9185C152.707 41.0679 152.548 41.2111 152.398 41.344C152.384 41.3563 152.37 41.3707 152.355 41.383C148.248 45.1488 143.216 48.2438 137.535 49.2358L136.584 49.4056L135.625 49.518C135.017 49.6019 134.291 49.6326 133.696 49.6796C131.75 49.75 129.802 49.6501 127.874 49.381C124.009 48.8024 120.262 47.6105 116.773 45.8504C114.066 44.4685 111.518 42.7955 109.174 40.8613C109.049 40.759 108.924 40.6567 108.801 40.5525C108.372 40.1904 107.938 39.8358 107.5 39.4887C106.228 38.4745 104.903 37.5275 103.532 36.6515C103.399 36.5636 103.266 36.4797 103.131 36.3958C102.695 36.1177 102.251 35.8477 101.803 35.5879C98.8321 33.8857 95.6776 32.5255 92.4 31.5335C92.3755 31.4436 92.353 31.3536 92.3305 31.2615C92.2671 30.9956 92.2057 30.7317 92.1505 30.4719C91.9215 29.3942 91.7549 28.3042 91.6514 27.2072C95.7568 28.1595 99.7218 29.6384 103.448 31.6073C104.064 31.9345 104.67 32.2781 105.267 32.6382C105.361 32.6934 105.455 32.7507 105.549 32.8079C107.503 33.9987 109.373 35.3226 111.145 36.7702C111.679 37.1936 112.211 37.6212 112.741 38.0467C114.259 39.2678 115.777 40.4829 117.38 41.5977C120.488 43.7967 123.818 45.8136 127.502 46.998C133.209 48.8574 138.791 48.2274 144.099 45.5764C144.484 45.38 144.866 45.1754 145.243 44.9585C146.624 43.8376 148.195 42.1029 150.003 38.4884C153.685 31.1244 160.963 13.5797 160.963 13.5797L163.925 6.64941H167.47L173.132 19.5262L173.158 19.5855L175.578 25.0881C173.165 25.5177 169.094 27.2568 167.335 28.1748L166.267 25.7385L162.779 17.7813L161.329 21.1668L161.298 21.2363L156.017 33.5607L155.949 33.7182L154.875 36.222C154.867 36.2445 154.859 36.2649 154.851 36.2875L154.849 36.2936L154.211 37.7889C158.277 34.2699 162.901 31.4528 167.893 29.4532C170.739 28.3139 173.773 27.2513 176.403 26.9658L177.336 29.081L180.453 36.1729C180.611 36.5368 180.788 36.8919 180.985 37.2365L180.991 37.2468L182.824 41.383Z" fill="#96402B" />
                        <path d="M60.2355 6.65127L51.4314 27.4034L48.4162 34.4544L45.4543 41.3847H41.9093L36.2472 28.508L36.2206 28.4487L33.2362 21.6615C33.2321 21.6513 33.2264 21.6389 33.2219 21.6288C20.8106 -5.78682 0 2.56216 0 2.56216V1.18755C0 1.18755 14.0504 -2.89904 26.9609 4.15843C37.6035 9.97613 44.0736 24.4864 46.5998 30.2529L48.0501 26.8675L48.0808 26.7979L53.3624 14.4755L53.4299 14.316L54.5038 11.8122C54.512 11.7897 54.5202 11.7693 54.5284 11.7467L54.5304 11.7406L56.7048 6.65127H60.2355Z" fill="#96402B" />
                        <path d="M49.9745 64.3006C49.9972 64.8345 49.9008 65.3668 49.6921 65.8588C49.4835 66.3508 49.1679 66.7901 48.7683 67.1449C47.8793 67.8825 46.7467 68.2611 45.5929 68.2063H43.9801V72.4854H42.333V60.5986H45.7288C47.0304 60.5986 48.0635 60.927 48.828 61.5836C49.2112 61.9211 49.5133 62.3407 49.7118 62.8111C49.9103 63.2815 50 63.7907 49.9745 64.3006ZM48.3103 64.3177C48.3222 64.0097 48.2643 63.703 48.1407 63.4207C48.0172 63.1383 47.8313 62.8876 47.597 62.6873C47.0531 62.2569 46.371 62.0396 45.6783 62.0761H43.963V66.7289H45.593C46.311 66.7661 47.0169 66.5327 47.5714 66.075C47.8168 65.8549 48.0104 65.5831 48.1382 65.2793C48.2659 64.9754 48.3247 64.647 48.3103 64.3177Z" fill="#96402B" />
                        <path d="M62.8294 72.4854H61.1994V67.1705H54.0338V72.4854H52.3867V60.5986H54.0338V65.6589H61.1994V60.5986H62.8294V72.4854Z" fill="#96402B" />
                        <path d="M71.6759 72.7229C70.2604 72.7039 68.895 72.1959 67.8115 71.2849C66.7279 70.374 65.9928 69.1162 65.7309 67.725C65.469 66.3338 65.6964 64.8949 66.3746 63.6523C67.0528 62.4097 68.1399 61.4399 69.4516 60.9076C70.7634 60.3752 72.2188 60.313 73.5712 60.7315C74.9235 61.15 76.0895 62.0235 76.8712 63.2037C77.6529 64.3839 78.0023 65.7982 77.86 67.2067C77.7178 68.6151 77.0927 69.931 76.0908 70.9311C75.5163 71.5155 74.8282 71.976 74.0689 72.2842C73.3096 72.5923 72.4952 72.7417 71.6759 72.7229ZM71.6417 61.889C71.0476 61.8798 70.458 61.9951 69.9111 62.2276C69.3642 62.46 68.8721 62.8045 68.4664 63.2388C67.6262 64.1333 67.1585 65.3144 67.1585 66.5416C67.1585 67.7688 67.6262 68.9499 68.4664 69.8444C68.8774 70.2811 69.3754 70.6269 69.9282 70.8594C70.4809 71.092 71.0763 71.2062 71.6759 71.1946C72.2737 71.2022 72.8665 71.0861 73.4174 70.8538C73.9682 70.6214 74.4651 70.2778 74.8768 69.8444C75.3098 69.4154 75.6511 68.903 75.8802 68.3382C76.1093 67.7733 76.2213 67.1679 76.2095 66.5585C76.2219 65.9453 76.1102 65.3359 75.8812 64.7669C75.6522 64.1979 75.3106 63.681 74.8768 63.2473C74.4609 62.8095 73.9586 62.4627 73.4017 62.2289C72.8449 61.9951 72.2456 61.8794 71.6417 61.889ZM74.5796 59.3758H73.7134L71.7093 58.3229L69.706 59.3758H68.8056V59.3587L70.8602 57.3379H72.5243L74.5796 59.3587L74.5796 59.3758ZM74.97 55.7417L76.1583 57.6096H75.3263L72.8471 55.7758V55.7417L74.97 55.7417Z" fill="#96402B" />
                        <path d="M82.0859 72.4854H80.5234V60.5986H82.0347L89.5403 69.1401V60.5986H91.0856V72.5704H90.5252L82.0859 62.959L82.0859 72.4854Z" fill="#96402B" />
                        <path d="M107.302 60.5986H109.068L103.124 72.757H102.751L96.9941 60.5986H98.8282L103.006 69.8025L107.302 60.5986Z" fill="#96402B" />
                        <path d="M112.989 72.4854H111.342V60.5986H112.989V72.4854Z" fill="#96402B" />
                        <path d="M118.035 72.4854H116.473V60.5986H117.984L125.489 69.1401V60.5986H127.035V72.5704H126.474L118.035 62.959V72.4854Z" fill="#96402B" />
                        <path d="M140.889 72.4854H139.259V67.1705H132.093V72.4854H130.446V60.5986H132.093V65.6589H139.259V60.5986H140.889V72.4854Z" fill="#96402B" />
                        <path d="M157.565 60.5986V62.0761H152.895V72.4854H151.265V62.0761H146.612V60.5986H157.565Z" fill="#96402B" />
                        <path d="M169.026 72.4855H166.971L162.794 67.731H161.503V72.4855H159.856V60.5988H163.321C164.37 60.5479 165.401 60.8867 166.216 61.55C166.849 62.1424 167.237 62.9516 167.302 63.8168C167.366 64.682 167.102 65.5397 166.563 66.2194C166.038 66.8365 165.331 67.2706 164.543 67.459L169.026 72.4855ZM165.647 64.1141C165.656 63.8324 165.601 63.5524 165.486 63.2951C165.372 63.0377 165.2 62.8097 164.985 62.6281C164.502 62.2346 163.891 62.0322 163.269 62.0591H161.469V66.2874H163.185C163.832 66.3144 164.466 66.0961 164.959 65.6761C165.182 65.4828 165.359 65.2424 165.478 64.9723C165.597 64.7022 165.655 64.4091 165.647 64.1141Z" fill="#96402B" />
                        <path d="M177.382 72.4847H170.641V60.5979H177.331L177.823 62.0754H172.288V65.7094H176.923V67.1698H172.288V71.0072H177.875L177.382 72.4847ZM177.06 59.3755H176.193L174.189 58.1018L172.186 59.3755H171.286V59.3584L173.426 56.981H174.92L177.06 59.3584V59.3755Z" fill="#96402B" />
                        <path d="M182.12 72.4854H180.558V60.5986H182.069L189.574 69.1401V60.5986H191.12V72.5704H190.559L182.12 62.959V72.4854Z" fill="#96402B" />
                        <path d="M196.91 67.0005V65.8289H198.54V60.5986H202.463C204.523 60.5986 206.159 61.1307 207.371 62.1948C208.581 63.2594 209.187 64.6971 209.188 66.5081C209.215 67.3226 209.061 68.133 208.737 68.8805C208.412 69.628 207.925 70.2939 207.311 70.8298C206.06 71.9335 204.444 72.4854 202.463 72.4854H198.54V67.0005H196.91ZM203.397 65.8289V67.0005H200.187V70.9912H202.497C203.812 71.0462 205.099 70.6069 206.105 69.7598C206.546 69.3447 206.897 68.8443 207.138 68.2892C207.379 67.7341 207.504 67.1358 207.507 66.5306C207.509 65.9255 207.388 65.3262 207.152 64.7692C206.915 64.2122 206.568 63.709 206.131 63.2904C205.214 62.4921 203.98 62.093 202.429 62.0932H200.187V65.8289H203.397Z" fill="#96402B" />
                        <path d="M211.818 72.4844H210.12L215.657 60.5298H217.168L222.499 72.4844H220.734L219.409 69.4279H213.194L211.818 72.4844ZM219.257 59.4431H218.39L216.386 58.3902L214.383 59.4431H213.483V59.4261L215.537 57.4053H217.201L219.257 59.4261L219.257 59.4431ZM216.353 62.3976L213.84 67.9845H218.781L216.353 62.3976ZM219.137 57.6769H218.322L219.511 55.8091H221.617V55.8432L219.137 57.6769Z" fill="#96402B" />
                        <path d="M233.129 60.5986V62.0761H228.459V72.4854H226.829V62.0761H222.177V60.5986H233.129Z" fill="#96402B" />
                        <path d="M247.97 60.5986H249.736L243.792 72.757H243.419L237.662 60.5986H239.496L243.674 69.8025L247.97 60.5986Z" fill="#96402B" />
                        <path d="M250.891 72.4847H249.192L254.729 60.53H256.24L261.572 72.4847H259.806L258.482 69.4281H252.266L250.891 72.4847ZM254.525 56.981L255.917 59.3755H255.085L252.266 57.0151V56.981H254.525ZM255.425 62.3979L252.912 67.9848H257.853L255.425 62.3979Z" fill="#96402B" />
                        <path d="M265.358 72.4854H263.796V60.5986H265.307L272.813 69.1401V60.5986H274.358V72.5704H273.798L265.358 62.959V72.4854Z" fill="#96402B" />
                        <path d="M287.993 66.3043V71.1779C287.273 71.6695 286.483 72.0502 285.65 72.3072C284.828 72.5448 283.976 72.6621 283.12 72.6553C281.308 72.6553 279.836 72.0978 278.705 70.9827C277.572 69.8677 277.006 68.3988 277.007 66.5759C276.982 65.7512 277.133 64.9308 277.451 64.1694C277.769 63.408 278.245 62.7233 278.849 62.161C280.119 60.9898 281.801 60.3673 283.527 60.429C284.253 60.4241 284.978 60.5067 285.684 60.675C286.381 60.8503 287.054 61.1098 287.688 61.4477V63.2647H287.654C286.984 62.8583 286.268 62.5307 285.523 62.2883C284.861 62.0809 284.171 61.975 283.477 61.9744C282.849 61.9569 282.224 62.0643 281.638 62.2902C281.052 62.5161 280.517 62.856 280.063 63.2904C279.618 63.705 279.265 64.209 279.028 64.7694C278.791 65.3297 278.675 65.9339 278.688 66.5422C278.662 67.1517 278.759 67.7603 278.975 68.3309C279.191 68.9016 279.521 69.4224 279.944 69.8619C280.372 70.2847 280.883 70.6152 281.443 70.8328C282.004 71.0504 282.604 71.1506 283.205 71.127C283.773 71.132 284.34 71.0692 284.894 70.94C285.415 70.8133 285.916 70.6133 286.38 70.3458V67.7988H282.967V66.3043L287.993 66.3043Z" fill="#96402B" />
                    </svg>