<svg xmlns="http://www.w3.org/2000/svg" width="32" height="32" viewBox="0 0 32 32" fill="none">
    <path d="M22.0918 27.7105C21.9771 27.7105 21.8671 27.665 21.786 27.5839C21.7049 27.5028 21.6593 27.3928 21.6593 27.2781V4.3064L16.1787 2.00716L11.5763 3.81775V27.2781C11.5763 27.3928 11.5307 27.5028 11.4496 27.5839C11.3685 27.665 11.2585 27.7105 11.1439 27.7105C11.0292 27.7105 10.9192 27.665 10.8381 27.5839C10.757 27.5028 10.7114 27.3928 10.7114 27.2781V3.52284C10.7114 3.43595 10.7375 3.35108 10.7864 3.27927C10.8353 3.20746 10.9047 3.15204 10.9856 3.12024L16.0256 1.13754C16.1304 1.09622 16.2473 1.09746 16.3512 1.141L22.2591 3.62013C22.3376 3.6531 22.4047 3.70852 22.4519 3.77945C22.499 3.85038 22.5242 3.93366 22.5242 4.01884V27.2781C22.5242 27.3928 22.4786 27.5028 22.3975 27.5839C22.3164 27.665 22.2064 27.7105 22.0918 27.7105Z" fill="white"/>
    <path d="M16.1839 27.7102C16.0692 27.7102 15.9592 27.6647 15.8781 27.5836C15.797 27.5025 15.7515 27.3925 15.7515 27.2778V1.53985C15.7515 1.42517 15.797 1.31518 15.8781 1.23408C15.9592 1.15298 16.0692 1.10742 16.1839 1.10742C16.2986 1.10742 16.4086 1.15298 16.4897 1.23408C16.5708 1.31518 16.6163 1.42517 16.6163 1.53985V27.2778C16.6163 27.3925 16.5708 27.5025 16.4897 27.5836C16.4086 27.6647 16.2986 27.7102 16.1839 27.7102Z" fill="white"/>
    <path d="M29.0732 27.712C28.9585 27.712 28.8486 27.6665 28.7675 27.5854C28.6864 27.5043 28.6408 27.3943 28.6408 27.2796V13.6883L24.4125 11.2281H22.0916C21.9769 11.2281 21.8669 11.1826 21.7858 11.1015C21.7047 11.0204 21.6592 10.9104 21.6592 10.7957C21.6592 10.681 21.7047 10.571 21.7858 10.4899C21.8669 10.4088 21.9769 10.3633 22.0916 10.3633H24.5292C24.6052 10.3635 24.6798 10.3838 24.7454 10.4221L29.2899 13.066C29.3555 13.1039 29.41 13.1583 29.4479 13.2239C29.4859 13.2895 29.5059 13.3638 29.5061 13.4396V27.2774C29.5064 27.3344 29.4954 27.3909 29.4738 27.4437C29.4521 27.4964 29.4203 27.5444 29.3801 27.5848C29.3398 27.6252 29.292 27.6572 29.2394 27.679C29.1867 27.7009 29.1302 27.7121 29.0732 27.712Z" fill="white"/>
    <path d="M24.5294 27.712C24.4147 27.712 24.3047 27.6665 24.2236 27.5854C24.1425 27.5043 24.0969 27.3943 24.0969 27.2796V10.7957C24.0969 10.681 24.1425 10.571 24.2236 10.4899C24.3047 10.4088 24.4147 10.3633 24.5294 10.3633C24.644 10.3633 24.754 10.4088 24.8351 10.4899C24.9162 10.571 24.9618 10.681 24.9618 10.7957V27.2796C24.9618 27.3943 24.9162 27.5043 24.8351 27.5854C24.754 27.6665 24.644 27.712 24.5294 27.712Z" fill="white"/>
    <path d="M2.26105 27.7119C2.14636 27.7119 2.03637 27.6663 1.95527 27.5852C1.87417 27.5041 1.82861 27.3941 1.82861 27.2794V13.8113C1.82861 13.6967 1.87417 13.5867 1.95527 13.5056C2.03637 13.4245 2.14636 13.3789 2.26105 13.3789H11.1436C11.2583 13.3789 11.3683 13.4245 11.4494 13.5056C11.5305 13.5867 11.5761 13.6967 11.5761 13.8113C11.5761 13.926 11.5305 14.036 11.4494 14.1171C11.3683 14.1982 11.2583 14.2438 11.1436 14.2438H2.69348V27.2794C2.69348 27.3941 2.64792 27.5041 2.56682 27.5852C2.48572 27.6663 2.37573 27.7119 2.26105 27.7119Z" fill="white"/>
    <path d="M4.64188 15.9039H3.72296C3.60827 15.9039 3.49828 15.8584 3.41718 15.7773C3.33609 15.6962 3.29053 15.5862 3.29053 15.4715C3.29053 15.3568 3.33609 15.2468 3.41718 15.1657C3.49828 15.0846 3.60827 15.0391 3.72296 15.0391H4.64188C4.75657 15.0391 4.86656 15.0846 4.94765 15.1657C5.02875 15.2468 5.07431 15.3568 5.07431 15.4715C5.07431 15.5862 5.02875 15.6962 4.94765 15.7773C4.86656 15.8584 4.75657 15.9039 4.64188 15.9039Z" fill="white"/>
    <path d="M7.16233 15.9039H6.24298C6.12829 15.9039 6.0183 15.8584 5.9372 15.7773C5.85611 15.6962 5.81055 15.5862 5.81055 15.4715C5.81055 15.3568 5.85611 15.2468 5.9372 15.1657C6.0183 15.0846 6.12829 15.0391 6.24298 15.0391H7.16233C7.27702 15.0391 7.38701 15.0846 7.46811 15.1657C7.5492 15.2468 7.59476 15.3568 7.59476 15.4715C7.59476 15.5862 7.5492 15.6962 7.46811 15.7773C7.38701 15.8584 7.27702 15.9039 7.16233 15.9039Z" fill="white"/>
    <path d="M9.68216 15.9039H8.76324C8.64855 15.9039 8.53856 15.8584 8.45747 15.7773C8.37637 15.6962 8.33081 15.5862 8.33081 15.4715C8.33081 15.3568 8.37637 15.2468 8.45747 15.1657C8.53856 15.0846 8.64855 15.0391 8.76324 15.0391H9.68216C9.79685 15.0391 9.90684 15.0846 9.98794 15.1657C10.069 15.2468 10.1146 15.3568 10.1146 15.4715C10.1146 15.5862 10.069 15.6962 9.98794 15.7773C9.90684 15.8584 9.79685 15.9039 9.68216 15.9039Z" fill="white"/>
    <path d="M4.64188 17.9332H3.72296C3.60827 17.9332 3.49828 17.8877 3.41718 17.8066C3.33609 17.7255 3.29053 17.6155 3.29053 17.5008C3.29053 17.3861 3.33609 17.2761 3.41718 17.195C3.49828 17.1139 3.60827 17.0684 3.72296 17.0684H4.64188C4.75657 17.0684 4.86656 17.1139 4.94765 17.195C5.02875 17.2761 5.07431 17.3861 5.07431 17.5008C5.07431 17.6155 5.02875 17.7255 4.94765 17.8066C4.86656 17.8877 4.75657 17.9332 4.64188 17.9332Z" fill="white"/>
    <path d="M7.16233 17.9332H6.24298C6.12829 17.9332 6.0183 17.8877 5.9372 17.8066C5.85611 17.7255 5.81055 17.6155 5.81055 17.5008C5.81055 17.3861 5.85611 17.2761 5.9372 17.195C6.0183 17.1139 6.12829 17.0684 6.24298 17.0684H7.16233C7.27702 17.0684 7.38701 17.1139 7.46811 17.195C7.5492 17.2761 7.59476 17.3861 7.59476 17.5008C7.59476 17.6155 7.5492 17.7255 7.46811 17.8066C7.38701 17.8877 7.27702 17.9332 7.16233 17.9332Z" fill="white"/>
    <path d="M9.68216 17.9332H8.76324C8.64855 17.9332 8.53856 17.8877 8.45747 17.8066C8.37637 17.7255 8.33081 17.6155 8.33081 17.5008C8.33081 17.3861 8.37637 17.2761 8.45747 17.195C8.53856 17.1139 8.64855 17.0684 8.76324 17.0684H9.68216C9.79685 17.0684 9.90684 17.1139 9.98794 17.195C10.069 17.2761 10.1146 17.3861 10.1146 17.5008C10.1146 17.6155 10.069 17.7255 9.98794 17.8066C9.90684 17.8877 9.79685 17.9332 9.68216 17.9332Z" fill="white"/>
    <path d="M4.64188 19.9625H3.72296C3.60827 19.9625 3.49828 19.917 3.41718 19.8359C3.33609 19.7548 3.29053 19.6448 3.29053 19.5301C3.29053 19.4154 3.33609 19.3054 3.41718 19.2243C3.49828 19.1432 3.60827 19.0977 3.72296 19.0977H4.64188C4.75657 19.0977 4.86656 19.1432 4.94765 19.2243C5.02875 19.3054 5.07431 19.4154 5.07431 19.5301C5.07431 19.6448 5.02875 19.7548 4.94765 19.8359C4.86656 19.917 4.75657 19.9625 4.64188 19.9625Z" fill="white"/>
    <path d="M7.16233 19.9625H6.24298C6.12829 19.9625 6.0183 19.917 5.9372 19.8359C5.85611 19.7548 5.81055 19.6448 5.81055 19.5301C5.81055 19.4154 5.85611 19.3054 5.9372 19.2243C6.0183 19.1432 6.12829 19.0977 6.24298 19.0977H7.16233C7.27702 19.0977 7.38701 19.1432 7.46811 19.2243C7.5492 19.3054 7.59476 19.4154 7.59476 19.5301C7.59476 19.6448 7.5492 19.7548 7.46811 19.8359C7.38701 19.917 7.27702 19.9625 7.16233 19.9625Z" fill="white"/>
    <path d="M9.68216 19.9625H8.76324C8.64855 19.9625 8.53856 19.917 8.45747 19.8359C8.37637 19.7548 8.33081 19.6448 8.33081 19.5301C8.33081 19.4154 8.37637 19.3054 8.45747 19.2243C8.53856 19.1432 8.64855 19.0977 8.76324 19.0977H9.68216C9.79685 19.0977 9.90684 19.1432 9.98794 19.2243C10.069 19.3054 10.1146 19.4154 10.1146 19.5301C10.1146 19.6448 10.069 19.7548 9.98794 19.8359C9.90684 19.917 9.79685 19.9625 9.68216 19.9625Z" fill="white"/>
    <path d="M4.64188 21.9918H3.72296C3.60827 21.9918 3.49828 21.9463 3.41718 21.8652C3.33609 21.7841 3.29053 21.6741 3.29053 21.5594C3.29053 21.4447 3.33609 21.3347 3.41718 21.2536C3.49828 21.1725 3.60827 21.127 3.72296 21.127H4.64188C4.75657 21.127 4.86656 21.1725 4.94765 21.2536C5.02875 21.3347 5.07431 21.4447 5.07431 21.5594C5.07431 21.6741 5.02875 21.7841 4.94765 21.8652C4.86656 21.9463 4.75657 21.9918 4.64188 21.9918Z" fill="white"/>
    <path d="M7.16233 21.9918H6.24298C6.12829 21.9918 6.0183 21.9463 5.9372 21.8652C5.85611 21.7841 5.81055 21.6741 5.81055 21.5594C5.81055 21.4447 5.85611 21.3347 5.9372 21.2536C6.0183 21.1725 6.12829 21.127 6.24298 21.127H7.16233C7.27702 21.127 7.38701 21.1725 7.46811 21.2536C7.5492 21.3347 7.59476 21.4447 7.59476 21.5594C7.59476 21.6741 7.5492 21.7841 7.46811 21.8652C7.38701 21.9463 7.27702 21.9918 7.16233 21.9918Z" fill="white"/>
    <path d="M9.68216 21.9918H8.76324C8.64855 21.9918 8.53856 21.9463 8.45747 21.8652C8.37637 21.7841 8.33081 21.6741 8.33081 21.5594C8.33081 21.4447 8.37637 21.3347 8.45747 21.2536C8.53856 21.1725 8.64855 21.127 8.76324 21.127H9.68216C9.79685 21.127 9.90684 21.1725 9.98794 21.2536C10.069 21.3347 10.1146 21.4447 10.1146 21.5594C10.1146 21.6741 10.069 21.7841 9.98794 21.8652C9.90684 21.9463 9.79685 21.9918 9.68216 21.9918Z" fill="white"/>
    <path d="M4.64188 24.0211H3.72296C3.60827 24.0211 3.49828 23.9756 3.41718 23.8945C3.33609 23.8134 3.29053 23.7034 3.29053 23.5887C3.29053 23.474 3.33609 23.364 3.41718 23.2829C3.49828 23.2018 3.60827 23.1562 3.72296 23.1562H4.64188C4.75657 23.1562 4.86656 23.2018 4.94765 23.2829C5.02875 23.364 5.07431 23.474 5.07431 23.5887C5.07431 23.7034 5.02875 23.8134 4.94765 23.8945C4.86656 23.9756 4.75657 24.0211 4.64188 24.0211Z" fill="white"/>
    <path d="M7.16233 24.0211H6.24298C6.12829 24.0211 6.0183 23.9756 5.9372 23.8945C5.85611 23.8134 5.81055 23.7034 5.81055 23.5887C5.81055 23.474 5.85611 23.364 5.9372 23.2829C6.0183 23.2018 6.12829 23.1562 6.24298 23.1562H7.16233C7.27702 23.1562 7.38701 23.2018 7.46811 23.2829C7.5492 23.364 7.59476 23.474 7.59476 23.5887C7.59476 23.7034 7.5492 23.8134 7.46811 23.8945C7.38701 23.9756 7.27702 24.0211 7.16233 24.0211Z" fill="white"/>
    <path d="M9.68216 24.0211H8.76324C8.64855 24.0211 8.53856 23.9756 8.45747 23.8945C8.37637 23.8134 8.33081 23.7034 8.33081 23.5887C8.33081 23.474 8.37637 23.364 8.45747 23.2829C8.53856 23.2018 8.64855 23.1562 8.76324 23.1562H9.68216C9.79685 23.1562 9.90684 23.2018 9.98794 23.2829C10.069 23.364 10.1146 23.474 10.1146 23.5887C10.1146 23.7034 10.069 23.8134 9.98794 23.8945C9.90684 23.9756 9.79685 24.0211 9.68216 24.0211Z" fill="white"/>
    <path d="M4.64188 26.0504H3.72296C3.60827 26.0504 3.49828 26.0049 3.41718 25.9238C3.33609 25.8427 3.29053 25.7327 3.29053 25.618C3.29053 25.5033 3.33609 25.3933 3.41718 25.3122C3.49828 25.2311 3.60827 25.1855 3.72296 25.1855H4.64188C4.75657 25.1855 4.86656 25.2311 4.94765 25.3122C5.02875 25.3933 5.07431 25.5033 5.07431 25.618C5.07431 25.7327 5.02875 25.8427 4.94765 25.9238C4.86656 26.0049 4.75657 26.0504 4.64188 26.0504Z" fill="white"/>
    <path d="M7.16233 26.0504H6.24298C6.12829 26.0504 6.0183 26.0049 5.9372 25.9238C5.85611 25.8427 5.81055 25.7327 5.81055 25.618C5.81055 25.5033 5.85611 25.3933 5.9372 25.3122C6.0183 25.2311 6.12829 25.1855 6.24298 25.1855H7.16233C7.27702 25.1855 7.38701 25.2311 7.46811 25.3122C7.5492 25.3933 7.59476 25.5033 7.59476 25.618C7.59476 25.7327 7.5492 25.8427 7.46811 25.9238C7.38701 26.0049 7.27702 26.0504 7.16233 26.0504Z" fill="white"/>
    <path d="M9.68216 26.0504H8.76324C8.64855 26.0504 8.53856 26.0049 8.45747 25.9238C8.37637 25.8427 8.33081 25.7327 8.33081 25.618C8.33081 25.5033 8.37637 25.3933 8.45747 25.3122C8.53856 25.2311 8.64855 25.1855 8.76324 25.1855H9.68216C9.79685 25.1855 9.90684 25.2311 9.98794 25.3122C10.069 25.3933 10.1146 25.5033 10.1146 25.618C10.1146 25.7327 10.069 25.8427 9.98794 25.9238C9.90684 26.0049 9.79685 26.0504 9.68216 26.0504Z" fill="white"/>
    <path d="M14.6595 5.77461C14.5448 5.77461 14.4348 5.72906 14.3537 5.64796C14.2726 5.56686 14.2271 5.45687 14.2271 5.34218V4.52618C14.2271 4.41149 14.2726 4.3015 14.3537 4.22041C14.4348 4.13931 14.5448 4.09375 14.6595 4.09375C14.7742 4.09375 14.8842 4.13931 14.9653 4.22041C15.0464 4.3015 15.0919 4.41149 15.0919 4.52618V5.34218C15.0919 5.45687 15.0464 5.56686 14.9653 5.64796C14.8842 5.72906 14.7742 5.77461 14.6595 5.77461Z" fill="white"/>
    <path d="M12.6876 6.27657C12.5729 6.27657 12.4629 6.23101 12.3818 6.14991C12.3007 6.06881 12.2551 5.95882 12.2551 5.84414V5.02814C12.2551 4.91345 12.3007 4.80346 12.3818 4.72236C12.4629 4.64126 12.5729 4.5957 12.6876 4.5957C12.8022 4.5957 12.9122 4.64126 12.9933 4.72236C13.0744 4.80346 13.12 4.91345 13.12 5.02814V5.84414C13.12 5.95882 13.0744 6.06881 12.9933 6.14991C12.9122 6.23101 12.8022 6.27657 12.6876 6.27657Z" fill="white"/>
    <path d="M14.6595 9.02657C14.5448 9.02657 14.4348 8.98101 14.3537 8.89991C14.2726 8.81881 14.2271 8.70882 14.2271 8.59414V7.77814C14.2271 7.66345 14.2726 7.55346 14.3537 7.47236C14.4348 7.39126 14.5448 7.3457 14.6595 7.3457C14.7742 7.3457 14.8842 7.39126 14.9653 7.47236C15.0464 7.55346 15.0919 7.66345 15.0919 7.77814V8.59414C15.0919 8.70882 15.0464 8.81881 14.9653 8.89991C14.8842 8.98101 14.7742 9.02657 14.6595 9.02657Z" fill="white"/>
    <path d="M12.6876 9.52852C12.5729 9.52852 12.4629 9.48296 12.3818 9.40186C12.3007 9.32077 12.2551 9.21078 12.2551 9.09609V8.28009C12.2551 8.1654 12.3007 8.05541 12.3818 7.97431C12.4629 7.89322 12.5729 7.84766 12.6876 7.84766C12.8022 7.84766 12.9122 7.89322 12.9933 7.97431C13.0744 8.05541 13.12 8.1654 13.12 8.28009V9.09609C13.12 9.21078 13.0744 9.32077 12.9933 9.40186C12.9122 9.48296 12.8022 9.52852 12.6876 9.52852Z" fill="white"/>
    <path d="M14.6595 12.2803C14.5448 12.2803 14.4348 12.2347 14.3537 12.1536C14.2726 12.0725 14.2271 11.9625 14.2271 11.8478V11.0301C14.2271 10.9154 14.2726 10.8054 14.3537 10.7243C14.4348 10.6432 14.5448 10.5977 14.6595 10.5977C14.7742 10.5977 14.8842 10.6432 14.9653 10.7243C15.0464 10.8054 15.0919 10.9154 15.0919 11.0301V11.8478C15.0919 11.9625 15.0464 12.0725 14.9653 12.1536C14.8842 12.2347 14.7742 12.2803 14.6595 12.2803Z" fill="white"/>
    <path d="M12.6876 12.7824C12.5729 12.7824 12.4629 12.7369 12.3818 12.6558C12.3007 12.5747 12.2551 12.4647 12.2551 12.35V11.534C12.2551 11.4193 12.3007 11.3093 12.3818 11.2282C12.4629 11.1471 12.5729 11.1016 12.6876 11.1016C12.8022 11.1016 12.9122 11.1471 12.9933 11.2282C13.0744 11.3093 13.12 11.4193 13.12 11.534V12.35C13.12 12.4647 13.0744 12.5747 12.9933 12.6558C12.9122 12.7369 12.8022 12.7824 12.6876 12.7824Z" fill="white"/>
    <path d="M14.6595 15.5324C14.5448 15.5324 14.4348 15.4869 14.3537 15.4058C14.2726 15.3247 14.2271 15.2147 14.2271 15.1V14.284C14.2271 14.1693 14.2726 14.0593 14.3537 13.9782C14.4348 13.8971 14.5448 13.8516 14.6595 13.8516C14.7742 13.8516 14.8842 13.8971 14.9653 13.9782C15.0464 14.0593 15.0919 14.1693 15.0919 14.284V15.1C15.0919 15.2147 15.0464 15.3247 14.9653 15.4058C14.8842 15.4869 14.7742 15.5324 14.6595 15.5324Z" fill="white"/>
    <path d="M12.6876 16.0344C12.5729 16.0344 12.4629 15.9888 12.3818 15.9077C12.3007 15.8266 12.2551 15.7166 12.2551 15.6019V14.7859C12.2551 14.6713 12.3007 14.5613 12.3818 14.4802C12.4629 14.3991 12.5729 14.3535 12.6876 14.3535C12.8022 14.3535 12.9122 14.3991 12.9933 14.4802C13.0744 14.5613 13.12 14.6713 13.12 14.7859V15.6019C13.12 15.7166 13.0744 15.8266 12.9933 15.9077C12.9122 15.9888 12.8022 16.0344 12.6876 16.0344Z" fill="white"/>
    <path d="M14.6595 18.7844C14.5448 18.7844 14.4348 18.7388 14.3537 18.6577C14.2726 18.5766 14.2271 18.4666 14.2271 18.3519V17.5359C14.2271 17.4213 14.2726 17.3113 14.3537 17.2302C14.4348 17.1491 14.5448 17.1035 14.6595 17.1035C14.7742 17.1035 14.8842 17.1491 14.9653 17.2302C15.0464 17.3113 15.0919 17.4213 15.0919 17.5359V18.3519C15.0919 18.4666 15.0464 18.5766 14.9653 18.6577C14.8842 18.7388 14.7742 18.7844 14.6595 18.7844Z" fill="white"/>
    <path d="M12.6876 19.2874C12.5729 19.2874 12.4629 19.2419 12.3818 19.1608C12.3007 19.0797 12.2551 18.9697 12.2551 18.855V18.0399C12.2551 17.9252 12.3007 17.8152 12.3818 17.7341C12.4629 17.653 12.5729 17.6074 12.6876 17.6074C12.8022 17.6074 12.9122 17.653 12.9933 17.7341C13.0744 17.8152 13.12 17.9252 13.12 18.0399V18.855C13.12 18.9697 13.0744 19.0797 12.9933 19.1608C12.9122 19.2419 12.8022 19.2874 12.6876 19.2874Z" fill="white"/>
    <path d="M14.6595 22.0363C14.5448 22.0363 14.4348 21.9908 14.3537 21.9097C14.2726 21.8286 14.2271 21.7186 14.2271 21.6039V20.7879C14.2271 20.6732 14.2726 20.5632 14.3537 20.4821C14.4348 20.401 14.5448 20.3555 14.6595 20.3555C14.7742 20.3555 14.8842 20.401 14.9653 20.4821C15.0464 20.5632 15.0919 20.6732 15.0919 20.7879V21.6039C15.0919 21.7186 15.0464 21.8286 14.9653 21.9097C14.8842 21.9908 14.7742 22.0363 14.6595 22.0363Z" fill="white"/>
    <path d="M12.6876 22.5402C12.5729 22.5402 12.4629 22.4947 12.3818 22.4136C12.3007 22.3325 12.2551 22.2225 12.2551 22.1078V21.2918C12.2551 21.1771 12.3007 21.0671 12.3818 20.986C12.4629 20.9049 12.5729 20.8594 12.6876 20.8594C12.8022 20.8594 12.9122 20.9049 12.9933 20.986C13.0744 21.0671 13.12 21.1771 13.12 21.2918V22.1078C13.12 22.2225 13.0744 22.3325 12.9933 22.4136C12.9122 22.4947 12.8022 22.5402 12.6876 22.5402Z" fill="white"/>
    <path d="M14.6595 25.29C14.5448 25.29 14.4348 25.2445 14.3537 25.1634C14.2726 25.0823 14.2271 24.9723 14.2271 24.8576V24.0438C14.2271 23.9291 14.2726 23.8191 14.3537 23.738C14.4348 23.6569 14.5448 23.6113 14.6595 23.6113C14.7742 23.6113 14.8842 23.6569 14.9653 23.738C15.0464 23.8191 15.0919 23.9291 15.0919 24.0438V24.8598C15.0913 24.9741 15.0455 25.0835 14.9645 25.1641C14.8835 25.2448 14.7738 25.29 14.6595 25.29Z" fill="white"/>
    <path d="M12.6876 25.7926C12.5729 25.7926 12.4629 25.7471 12.3818 25.666C12.3007 25.5849 12.2551 25.4749 12.2551 25.3602V24.5438C12.2551 24.4291 12.3007 24.3191 12.3818 24.238C12.4629 24.1569 12.5729 24.1113 12.6876 24.1113C12.8022 24.1113 12.9122 24.1569 12.9933 24.238C13.0744 24.3191 13.12 24.4291 13.12 24.5438V25.3598C13.12 25.4166 13.1089 25.4729 13.0872 25.5254C13.0655 25.5779 13.0336 25.6256 12.9935 25.6658C12.9533 25.706 12.9056 25.7379 12.8531 25.7597C12.8007 25.7814 12.7444 25.7926 12.6876 25.7926Z" fill="white"/>
    <path d="M17.6434 5.36164C17.5287 5.36164 17.4187 5.31608 17.3376 5.23498C17.2565 5.15389 17.2109 5.0439 17.2109 4.92921V4.11407C17.2109 3.99938 17.2565 3.88939 17.3376 3.8083C17.4187 3.7272 17.5287 3.68164 17.6434 3.68164C17.7581 3.68164 17.868 3.7272 17.9491 3.8083C18.0302 3.88939 18.0758 3.99938 18.0758 4.11407V4.92921C18.0758 5.0439 18.0302 5.15389 17.9491 5.23498C17.868 5.31608 17.7581 5.36164 17.6434 5.36164Z" fill="white"/>
    <path d="M19.1036 5.91285C18.9889 5.91285 18.8789 5.86729 18.7978 5.7862C18.7167 5.7051 18.6711 5.59511 18.6711 5.48042V4.66485C18.6711 4.55017 18.7167 4.44018 18.7978 4.35908C18.8789 4.27798 18.9889 4.23242 19.1036 4.23242C19.2183 4.23242 19.3283 4.27798 19.4094 4.35908C19.4904 4.44018 19.536 4.55017 19.536 4.66485V5.48085C19.5359 5.59547 19.4903 5.70535 19.4092 5.78635C19.3281 5.86735 19.2182 5.91285 19.1036 5.91285Z" fill="white"/>
    <path d="M20.563 6.46364C20.4484 6.46364 20.3384 6.41808 20.2573 6.33698C20.1762 6.25588 20.1306 6.14589 20.1306 6.0312V5.21564C20.1306 5.10095 20.1762 4.99096 20.2573 4.90986C20.3384 4.82876 20.4484 4.7832 20.563 4.7832C20.6777 4.7832 20.7877 4.82876 20.8688 4.90986C20.9499 4.99096 20.9955 5.10095 20.9955 5.21564V6.03164C20.9954 6.14625 20.9498 6.25613 20.8687 6.33713C20.7876 6.41814 20.6777 6.46364 20.563 6.46364Z" fill="white"/>
    <path d="M17.6434 8.60599C17.5287 8.60599 17.4187 8.56043 17.3376 8.47933C17.2565 8.39824 17.2109 8.28825 17.2109 8.17356V7.35626C17.2109 7.24157 17.2565 7.13158 17.3376 7.05048C17.4187 6.96939 17.5287 6.92383 17.6434 6.92383C17.7581 6.92383 17.868 6.96939 17.9491 7.05048C18.0302 7.13158 18.0758 7.24157 18.0758 7.35626V8.17356C18.0758 8.28825 18.0302 8.39824 17.9491 8.47933C17.868 8.56043 17.7581 8.60599 17.6434 8.60599Z" fill="white"/>
    <path d="M19.1036 9.15504C18.9889 9.15504 18.8789 9.10948 18.7978 9.02839C18.7167 8.94729 18.6711 8.8373 18.6711 8.72261V7.90704C18.6711 7.79235 18.7167 7.68236 18.7978 7.60127C18.8789 7.52017 18.9889 7.47461 19.1036 7.47461C19.2183 7.47461 19.3283 7.52017 19.4094 7.60127C19.4904 7.68236 19.536 7.79235 19.536 7.90704V8.72261C19.536 8.8373 19.4904 8.94729 19.4094 9.02839C19.3283 9.10948 19.2183 9.15504 19.1036 9.15504Z" fill="white"/>
    <path d="M20.563 9.70582C20.4484 9.70582 20.3384 9.66026 20.2573 9.57917C20.1762 9.49807 20.1306 9.38808 20.1306 9.27339V8.45782C20.1306 8.34313 20.1762 8.23314 20.2573 8.15205C20.3384 8.07095 20.4484 8.02539 20.563 8.02539C20.6777 8.02539 20.7877 8.07095 20.8688 8.15205C20.9499 8.23314 20.9955 8.34313 20.9955 8.45782V9.27382C20.9954 9.38844 20.9498 9.49832 20.8687 9.57932C20.7876 9.66032 20.6777 9.70582 20.563 9.70582Z" fill="white"/>
    <path d="M17.6431 11.8451C17.5284 11.8451 17.4184 11.7996 17.3373 11.7185C17.2563 11.6374 17.2107 11.5274 17.2107 11.4127V10.5945C17.2107 10.4799 17.2563 10.3699 17.3373 10.2888C17.4184 10.2077 17.5284 10.1621 17.6431 10.1621C17.7578 10.1621 17.8678 10.2077 17.9489 10.2888C18.03 10.3699 18.0756 10.4799 18.0756 10.5945V11.4105C18.0758 11.4675 18.0649 11.524 18.0433 11.5767C18.0217 11.6294 17.9899 11.6773 17.9497 11.7177C17.9095 11.7581 17.8617 11.7901 17.8091 11.812C17.7565 11.8339 17.7001 11.8451 17.6431 11.8451Z" fill="white"/>
    <path d="M19.1036 12.3957C18.9889 12.3957 18.8789 12.3501 18.7978 12.2691C18.7167 12.188 18.6711 12.078 18.6711 11.9633V11.1473C18.6711 11.0326 18.7167 10.9226 18.7978 10.8415C18.8789 10.7604 18.9889 10.7148 19.1036 10.7148C19.2183 10.7148 19.3283 10.7604 19.4094 10.8415C19.4904 10.9226 19.536 11.0326 19.536 11.1473V11.9633C19.536 12.078 19.4904 12.188 19.4094 12.2691C19.3283 12.3501 19.2183 12.3957 19.1036 12.3957Z" fill="white"/>
    <path d="M20.563 12.9461C20.4484 12.9461 20.3384 12.9005 20.2573 12.8194C20.1762 12.7383 20.1306 12.6283 20.1306 12.5136V11.6981C20.1306 11.5834 20.1762 11.4734 20.2573 11.3923C20.3384 11.3112 20.4484 11.2656 20.563 11.2656C20.6777 11.2656 20.7877 11.3112 20.8688 11.3923C20.9499 11.4734 20.9955 11.5834 20.9955 11.6981V12.5141C20.9954 12.6287 20.9498 12.7386 20.8687 12.8196C20.7876 12.9006 20.6777 12.9461 20.563 12.9461Z" fill="white"/>
    <path d="M17.6431 15.0871C17.5284 15.0871 17.4184 15.0416 17.3373 14.9605C17.2563 14.8794 17.2107 14.7694 17.2107 14.6547V13.8387C17.2107 13.724 17.2563 13.614 17.3373 13.5329C17.4184 13.4518 17.5284 13.4062 17.6431 13.4062C17.7578 13.4062 17.8678 13.4518 17.9489 13.5329C18.03 13.614 18.0756 13.724 18.0756 13.8387V14.6547C18.0756 14.7694 18.03 14.8794 17.9489 14.9605C17.8678 15.0416 17.7578 15.0871 17.6431 15.0871Z" fill="white"/>
    <path d="M19.1036 15.6379C18.9889 15.6379 18.8789 15.5923 18.7978 15.5112C18.7167 15.4301 18.6711 15.3202 18.6711 15.2055V14.3895C18.6711 14.2748 18.7167 14.1648 18.7978 14.0837C18.8789 14.0026 18.9889 13.957 19.1036 13.957C19.2183 13.957 19.3283 14.0026 19.4094 14.0837C19.4904 14.1648 19.536 14.2748 19.536 14.3895V15.2055C19.536 15.3202 19.4904 15.4301 19.4094 15.5112C19.3283 15.5923 19.2183 15.6379 19.1036 15.6379Z" fill="white"/>
    <path d="M20.563 16.1887C20.4484 16.1887 20.3384 16.1431 20.2573 16.062C20.1762 15.9809 20.1306 15.8709 20.1306 15.7562V14.9402C20.1306 14.8256 20.1762 14.7156 20.2573 14.6345C20.3384 14.5534 20.4484 14.5078 20.563 14.5078C20.6777 14.5078 20.7877 14.5534 20.8688 14.6345C20.9499 14.7156 20.9955 14.8256 20.9955 14.9402V15.7562C20.9955 15.8709 20.9499 15.9809 20.8688 16.062C20.7877 16.1431 20.6777 16.1887 20.563 16.1887Z" fill="white"/>
    <path d="M17.6434 18.3271C17.5287 18.3271 17.4187 18.2816 17.3376 18.2005C17.2565 18.1194 17.2109 18.0094 17.2109 17.8947V17.0809C17.2109 16.9662 17.2565 16.8562 17.3376 16.7751C17.4187 16.694 17.5287 16.6484 17.6434 16.6484C17.7581 16.6484 17.868 16.694 17.9491 16.7751C18.0302 16.8562 18.0758 16.9662 18.0758 17.0809V17.8969C18.0752 18.0112 18.0294 18.1206 17.9484 18.2012C17.8673 18.2819 17.7577 18.3271 17.6434 18.3271Z" fill="white"/>
    <path d="M19.1036 18.8781C18.9889 18.8781 18.8789 18.8326 18.7978 18.7515C18.7167 18.6704 18.6711 18.5604 18.6711 18.4457V17.6297C18.6711 17.515 18.7167 17.405 18.7978 17.3239C18.8789 17.2428 18.9889 17.1973 19.1036 17.1973C19.2183 17.1973 19.3283 17.2428 19.4094 17.3239C19.4904 17.405 19.536 17.515 19.536 17.6297V18.4457C19.536 18.5604 19.4904 18.6704 19.4094 18.7515C19.3283 18.8326 19.2183 18.8781 19.1036 18.8781Z" fill="white"/>
    <path d="M20.563 19.4289C20.4484 19.4289 20.3384 19.3834 20.2573 19.3023C20.1762 19.2212 20.1306 19.1112 20.1306 18.9965V18.1805C20.1306 18.0658 20.1762 17.9558 20.2573 17.8747C20.3384 17.7936 20.4484 17.748 20.563 17.748C20.6777 17.748 20.7877 17.7936 20.8688 17.8747C20.9499 17.9558 20.9955 18.0658 20.9955 18.1805V18.9965C20.9955 19.1112 20.9499 19.2212 20.8688 19.3023C20.7877 19.3834 20.6777 19.4289 20.563 19.4289Z" fill="white"/>
    <path d="M17.6431 21.5676C17.5284 21.5676 17.4184 21.522 17.3373 21.4409C17.2563 21.3598 17.2107 21.2498 17.2107 21.1351V20.3192C17.2107 20.2045 17.2563 20.0945 17.3373 20.0134C17.4184 19.9323 17.5284 19.8867 17.6431 19.8867C17.7578 19.8867 17.8678 19.9323 17.9489 20.0134C18.03 20.0945 18.0756 20.2045 18.0756 20.3192V21.1351C18.0756 21.2498 18.03 21.3598 17.9489 21.4409C17.8678 21.522 17.7578 21.5676 17.6431 21.5676Z" fill="white"/>
    <path d="M19.1036 22.1203C18.9889 22.1203 18.8789 22.0748 18.7978 21.9937C18.7167 21.9126 18.6711 21.8026 18.6711 21.6879V20.8719C18.6711 20.7572 18.7167 20.6472 18.7978 20.5661C18.8789 20.485 18.9889 20.4395 19.1036 20.4395C19.2183 20.4395 19.3283 20.485 19.4094 20.5661C19.4904 20.6472 19.536 20.7572 19.536 20.8719V21.6879C19.536 21.8026 19.4904 21.9126 19.4094 21.9937C19.3283 22.0748 19.2183 22.1203 19.1036 22.1203Z" fill="white"/>
    <path d="M20.563 22.6711C20.4484 22.6711 20.3384 22.6255 20.2573 22.5444C20.1762 22.4633 20.1306 22.3534 20.1306 22.2387V21.4227C20.1306 21.308 20.1762 21.198 20.2573 21.1169C20.3384 21.0358 20.4484 20.9902 20.563 20.9902C20.6777 20.9902 20.7877 21.0358 20.8688 21.1169C20.9499 21.198 20.9955 21.308 20.9955 21.4227V22.2387C20.9955 22.3534 20.9499 22.4633 20.8688 22.5444C20.7877 22.6255 20.6777 22.6711 20.563 22.6711Z" fill="white"/>
    <path d="M17.6431 24.8098C17.5284 24.8098 17.4184 24.7642 17.3373 24.6831C17.2563 24.602 17.2107 24.492 17.2107 24.3773V23.5613C17.2107 23.4467 17.2563 23.3367 17.3373 23.2556C17.4184 23.1745 17.5284 23.1289 17.6431 23.1289C17.7578 23.1289 17.8678 23.1745 17.9489 23.2556C18.03 23.3367 18.0756 23.4467 18.0756 23.5613V24.3773C18.0756 24.492 18.03 24.602 17.9489 24.6831C17.8678 24.7642 17.7578 24.8098 17.6431 24.8098Z" fill="white"/>
    <path d="M19.1036 25.3606C18.9889 25.3606 18.8789 25.315 18.7978 25.2339C18.7167 25.1528 18.6711 25.0428 18.6711 24.9281V24.1121C18.6711 23.9974 18.7167 23.8874 18.7978 23.8063C18.8789 23.7252 18.9889 23.6797 19.1036 23.6797C19.2183 23.6797 19.3283 23.7252 19.4094 23.8063C19.4904 23.8874 19.536 23.9974 19.536 24.1121V24.9281C19.536 25.0428 19.4904 25.1528 19.4094 25.2339C19.3283 25.315 19.2183 25.3606 19.1036 25.3606Z" fill="white"/>
    <path d="M20.563 25.9113C20.4484 25.9113 20.3384 25.8658 20.2573 25.7847C20.1762 25.7036 20.1306 25.5936 20.1306 25.4789V24.6629C20.1306 24.5482 20.1762 24.4382 20.2573 24.3571C20.3384 24.276 20.4484 24.2305 20.563 24.2305C20.6777 24.2305 20.7877 24.276 20.8688 24.3571C20.9499 24.4382 20.9955 24.5482 20.9955 24.6629V25.4789C20.9955 25.5936 20.9499 25.7036 20.8688 25.7847C20.7877 25.8658 20.6777 25.9113 20.563 25.9113Z" fill="white"/>
    <path d="M26.0325 14.5521C25.9178 14.5521 25.8079 14.5065 25.7268 14.4254C25.6457 14.3443 25.6001 14.2343 25.6001 14.1196V13.6824C25.6001 13.5677 25.6457 13.4578 25.7268 13.3767C25.8079 13.2956 25.9178 13.25 26.0325 13.25C26.1472 13.25 26.2572 13.2956 26.3383 13.3767C26.4194 13.4578 26.465 13.5677 26.465 13.6824V14.1196C26.465 14.2343 26.4194 14.3443 26.3383 14.4254C26.2572 14.5065 26.1472 14.5521 26.0325 14.5521Z" fill="white"/>
    <path d="M27.4898 15.4681C27.3751 15.4681 27.2651 15.4225 27.184 15.3414C27.1029 15.2603 27.0574 15.1503 27.0574 15.0356V14.5984C27.0574 14.4838 27.1029 14.3738 27.184 14.2927C27.2651 14.2116 27.3751 14.166 27.4898 14.166C27.6045 14.166 27.7145 14.2116 27.7956 14.2927C27.8767 14.3738 27.9222 14.4838 27.9222 14.5984V15.0356C27.9222 15.1503 27.8767 15.2603 27.7956 15.3414C27.7145 15.4225 27.6045 15.4681 27.4898 15.4681Z" fill="white"/>
    <path d="M26.0325 16.6864C25.9178 16.6864 25.8079 16.6408 25.7268 16.5597C25.6457 16.4786 25.6001 16.3686 25.6001 16.254V15.8172C25.6001 15.7025 25.6457 15.5925 25.7268 15.5114C25.8079 15.4303 25.9178 15.3848 26.0325 15.3848C26.1472 15.3848 26.2572 15.4303 26.3383 15.5114C26.4194 15.5925 26.465 15.7025 26.465 15.8172V16.2544C26.4648 16.369 26.4192 16.4789 26.3382 16.5599C26.2571 16.6409 26.1471 16.6864 26.0325 16.6864Z" fill="white"/>
    <path d="M27.4898 17.6026C27.3751 17.6026 27.2651 17.5571 27.184 17.476C27.1029 17.3949 27.0574 17.2849 27.0574 17.1702V16.7352C27.0574 16.6205 27.1029 16.5105 27.184 16.4294C27.2651 16.3483 27.3751 16.3027 27.4898 16.3027C27.6045 16.3027 27.7145 16.3483 27.7956 16.4294C27.8767 16.5105 27.9222 16.6205 27.9222 16.7352V17.1724C27.9217 17.2867 27.8759 17.3961 27.7948 17.4767C27.7138 17.5574 27.6041 17.6026 27.4898 17.6026Z" fill="white"/>
    <path d="M26.0325 18.8216C25.9178 18.8216 25.8079 18.776 25.7268 18.6949C25.6457 18.6138 25.6001 18.5038 25.6001 18.3892V17.952C25.6001 17.8373 25.6457 17.7273 25.7268 17.6462C25.8079 17.5651 25.9178 17.5195 26.0325 17.5195C26.1472 17.5195 26.2572 17.5651 26.3383 17.6462C26.4194 17.7273 26.465 17.8373 26.465 17.952V18.3892C26.465 18.5038 26.4194 18.6138 26.3383 18.6949C26.2572 18.776 26.1472 18.8216 26.0325 18.8216Z" fill="white"/>
    <path d="M27.4898 19.7376C27.3751 19.7376 27.2651 19.692 27.184 19.6109C27.1029 19.5298 27.0574 19.4199 27.0574 19.3052V18.868C27.0574 18.7533 27.1029 18.6433 27.184 18.5622C27.2651 18.4811 27.3751 18.4355 27.4898 18.4355C27.6045 18.4355 27.7145 18.4811 27.7956 18.5622C27.8767 18.6433 27.9222 18.7533 27.9222 18.868V19.3052C27.9222 19.4199 27.8767 19.5298 27.7956 19.6109C27.7145 19.692 27.6045 19.7376 27.4898 19.7376Z" fill="white"/>
    <path d="M26.0325 20.9583C25.9178 20.9583 25.8079 20.9127 25.7268 20.8316C25.6457 20.7506 25.6001 20.6406 25.6001 20.5259V20.0887C25.6001 19.974 25.6457 19.864 25.7268 19.7829C25.8079 19.7018 25.9178 19.6562 26.0325 19.6562C26.1472 19.6562 26.2572 19.7018 26.3383 19.7829C26.4194 19.864 26.465 19.974 26.465 20.0887V20.5259C26.465 20.6406 26.4194 20.7506 26.3383 20.8316C26.2572 20.9127 26.1472 20.9583 26.0325 20.9583Z" fill="white"/>
    <path d="M27.4898 21.8743C27.3751 21.8743 27.2651 21.8288 27.184 21.7477C27.1029 21.6666 27.0574 21.5566 27.0574 21.4419V21.0047C27.0574 20.89 27.1029 20.78 27.184 20.6989C27.2651 20.6178 27.3751 20.5723 27.4898 20.5723C27.6045 20.5723 27.7145 20.6178 27.7956 20.6989C27.8767 20.78 27.9222 20.89 27.9222 21.0047V21.4419C27.9222 21.5566 27.8767 21.6666 27.7956 21.7477C27.7145 21.8288 27.6045 21.8743 27.4898 21.8743Z" fill="white"/>
    <path d="M26.0325 23.0913C25.9178 23.0913 25.8079 23.0458 25.7268 22.9647C25.6457 22.8836 25.6001 22.7736 25.6001 22.6589V22.2234C25.6001 22.1088 25.6457 21.9988 25.7268 21.9177C25.8079 21.8366 25.9178 21.791 26.0325 21.791C26.1472 21.791 26.2572 21.8366 26.3383 21.9177C26.4194 21.9988 26.465 22.1088 26.465 22.2234V22.6589C26.465 22.7736 26.4194 22.8836 26.3383 22.9647C26.2572 23.0458 26.1472 23.0913 26.0325 23.0913Z" fill="white"/>
    <path d="M27.4898 24.0091C27.3751 24.0091 27.2651 23.9635 27.184 23.8824C27.1029 23.8013 27.0574 23.6913 27.0574 23.5767V23.1395C27.0574 23.0248 27.1029 22.9148 27.184 22.8337C27.2651 22.7526 27.3751 22.707 27.4898 22.707C27.6045 22.707 27.7145 22.7526 27.7956 22.8337C27.8767 22.9148 27.9222 23.0248 27.9222 23.1395V23.5767C27.9222 23.6913 27.8767 23.8013 27.7956 23.8824C27.7145 23.9635 27.6045 24.0091 27.4898 24.0091Z" fill="white"/>
    <path d="M26.0325 25.2298C25.9178 25.2298 25.8079 25.1842 25.7268 25.1031C25.6457 25.022 25.6001 24.912 25.6001 24.7974V24.3602C25.6001 24.2455 25.6457 24.1355 25.7268 24.0544C25.8079 23.9733 25.9178 23.9277 26.0325 23.9277C26.1472 23.9277 26.2572 23.9733 26.3383 24.0544C26.4194 24.1355 26.465 24.2455 26.465 24.3602V24.7974C26.465 24.912 26.4194 25.022 26.3383 25.1031C26.2572 25.1842 26.1472 25.2298 26.0325 25.2298Z" fill="white"/>
    <path d="M27.4898 26.1458C27.3751 26.1458 27.2651 26.1002 27.184 26.0191C27.1029 25.9381 27.0574 25.8281 27.0574 25.7134V25.2762C27.0574 25.1615 27.1029 25.0515 27.184 24.9704C27.2651 24.8893 27.3751 24.8438 27.4898 24.8438C27.6045 24.8438 27.7145 24.8893 27.7956 24.9704C27.8767 25.0515 27.9222 25.1615 27.9222 25.2762V25.7134C27.9222 25.8281 27.8767 25.9381 27.7956 26.0191C27.7145 26.1002 27.6045 26.1458 27.4898 26.1458Z" fill="white"/>
    <path d="M30.3701 27.7047H0.964659C0.849971 27.7047 0.73998 27.6591 0.658883 27.5781C0.577786 27.497 0.532227 27.387 0.532227 27.2723C0.532227 27.1576 0.577786 27.0476 0.658883 26.9665C0.73998 26.8854 0.849971 26.8398 0.964659 26.8398H30.3701C30.4848 26.8398 30.5947 26.8854 30.6758 26.9665C30.7569 27.0476 30.8025 27.1576 30.8025 27.2723C30.8025 27.387 30.7569 27.497 30.6758 27.5781C30.5947 27.6591 30.4848 27.7047 30.3701 27.7047Z" fill="white"/>
  </svg>