<svg xmlns="http://www.w3.org/2000/svg" width="32" height="32" viewBox="0 0 32 32" fill="none">
    <path d="M17.5 29H7.5C7.36739 29 7.24021 28.9473 7.14645 28.8536C7.05268 28.7598 7 28.6326 7 28.5V11.5C7 11.3674 7.05268 11.2402 7.14645 11.1464C7.24021 11.0527 7.36739 11 7.5 11H17.5C17.6326 11 17.7598 11.0527 17.8536 11.1464C17.9473 11.2402 18 11.3674 18 11.5V28.5C18 28.6326 17.9473 28.7598 17.8536 28.8536C17.7598 28.9473 17.6326 29 17.5 29ZM8 28H17V12H8V28Z" fill="white"/>
    <path d="M17.5 12H7.5C7.10218 12 6.72064 11.842 6.43934 11.5607C6.15804 11.2794 6 10.8978 6 10.5C6 10.1022 6.15804 9.72064 6.43934 9.43934C6.72064 9.15804 7.10218 9 7.5 9H17.5C17.8978 9 18.2794 9.15804 18.5607 9.43934C18.842 9.72064 19 10.1022 19 10.5C19 10.8978 18.842 11.2794 18.5607 11.5607C18.2794 11.842 17.8978 12 17.5 12ZM7.5 10C7.36739 10 7.24021 10.0527 7.14645 10.1464C7.05268 10.2402 7 10.3674 7 10.5C7 10.6326 7.05268 10.7598 7.14645 10.8536C7.24021 10.9473 7.36739 11 7.5 11H17.5C17.6326 11 17.7598 10.9473 17.8536 10.8536C17.9473 10.7598 18 10.6326 18 10.5C18 10.3674 17.9473 10.2402 17.8536 10.1464C17.7598 10.0527 17.6326 10 17.5 10H7.5Z" fill="white"/>
    <path d="M14.5 29H10.5C10.3674 29 10.2402 28.9473 10.1464 28.8536C10.0527 28.7598 10 28.6326 10 28.5V23.5C10 23.3674 10.0527 23.2402 10.1464 23.1464C10.2402 23.0527 10.3674 23 10.5 23H14.5C14.6326 23 14.7598 23.0527 14.8536 23.1464C14.9473 23.2402 15 23.3674 15 23.5V28.5C15 28.6326 14.9473 28.7598 14.8536 28.8536C14.7598 28.9473 14.6326 29 14.5 29ZM11 28H14V24H11V28Z" fill="white"/>
    <path d="M10.5 14H9.5C9.36739 14 9.24021 13.9473 9.14645 13.8536C9.05268 13.7598 9 13.6326 9 13.5C9 13.3674 9.05268 13.2402 9.14645 13.1464C9.24021 13.0527 9.36739 13 9.5 13H10.5C10.6326 13 10.7598 13.0527 10.8536 13.1464C10.9473 13.2402 11 13.3674 11 13.5C11 13.6326 10.9473 13.7598 10.8536 13.8536C10.7598 13.9473 10.6326 14 10.5 14Z" fill="white"/>
    <path d="M13 14H12C11.8674 14 11.7402 13.9473 11.6464 13.8536C11.5527 13.7598 11.5 13.6326 11.5 13.5C11.5 13.3674 11.5527 13.2402 11.6464 13.1464C11.7402 13.0527 11.8674 13 12 13H13C13.1326 13 13.2598 13.0527 13.3536 13.1464C13.4473 13.2402 13.5 13.3674 13.5 13.5C13.5 13.6326 13.4473 13.7598 13.3536 13.8536C13.2598 13.9473 13.1326 14 13 14Z" fill="white"/>
    <path d="M15.5 14H14.5C14.3674 14 14.2402 13.9473 14.1464 13.8536C14.0527 13.7598 14 13.6326 14 13.5C14 13.3674 14.0527 13.2402 14.1464 13.1464C14.2402 13.0527 14.3674 13 14.5 13H15.5C15.6326 13 15.7598 13.0527 15.8536 13.1464C15.9473 13.2402 16 13.3674 16 13.5C16 13.6326 15.9473 13.7598 15.8536 13.8536C15.7598 13.9473 15.6326 14 15.5 14Z" fill="white"/>
    <path d="M10.5 16H9.5C9.36739 16 9.24021 15.9473 9.14645 15.8536C9.05268 15.7598 9 15.6326 9 15.5C9 15.3674 9.05268 15.2402 9.14645 15.1464C9.24021 15.0527 9.36739 15 9.5 15H10.5C10.6326 15 10.7598 15.0527 10.8536 15.1464C10.9473 15.2402 11 15.3674 11 15.5C11 15.6326 10.9473 15.7598 10.8536 15.8536C10.7598 15.9473 10.6326 16 10.5 16Z" fill="white"/>
    <path d="M13 16H12C11.8674 16 11.7402 15.9473 11.6464 15.8536C11.5527 15.7598 11.5 15.6326 11.5 15.5C11.5 15.3674 11.5527 15.2402 11.6464 15.1464C11.7402 15.0527 11.8674 15 12 15H13C13.1326 15 13.2598 15.0527 13.3536 15.1464C13.4473 15.2402 13.5 15.3674 13.5 15.5C13.5 15.6326 13.4473 15.7598 13.3536 15.8536C13.2598 15.9473 13.1326 16 13 16Z" fill="white"/>
    <path d="M15.5 16H14.5C14.3674 16 14.2402 15.9473 14.1464 15.8536C14.0527 15.7598 14 15.6326 14 15.5C14 15.3674 14.0527 15.2402 14.1464 15.1464C14.2402 15.0527 14.3674 15 14.5 15H15.5C15.6326 15 15.7598 15.0527 15.8536 15.1464C15.9473 15.2402 16 15.3674 16 15.5C16 15.6326 15.9473 15.7598 15.8536 15.8536C15.7598 15.9473 15.6326 16 15.5 16Z" fill="white"/>
    <path d="M10.5 18H9.5C9.36739 18 9.24021 17.9473 9.14645 17.8536C9.05268 17.7598 9 17.6326 9 17.5C9 17.3674 9.05268 17.2402 9.14645 17.1464C9.24021 17.0527 9.36739 17 9.5 17H10.5C10.6326 17 10.7598 17.0527 10.8536 17.1464C10.9473 17.2402 11 17.3674 11 17.5C11 17.6326 10.9473 17.7598 10.8536 17.8536C10.7598 17.9473 10.6326 18 10.5 18Z" fill="white"/>
    <path d="M13 18H12C11.8674 18 11.7402 17.9473 11.6464 17.8536C11.5527 17.7598 11.5 17.6326 11.5 17.5C11.5 17.3674 11.5527 17.2402 11.6464 17.1464C11.7402 17.0527 11.8674 17 12 17H13C13.1326 17 13.2598 17.0527 13.3536 17.1464C13.4473 17.2402 13.5 17.3674 13.5 17.5C13.5 17.6326 13.4473 17.7598 13.3536 17.8536C13.2598 17.9473 13.1326 18 13 18Z" fill="white"/>
    <path d="M15.5 18H14.5C14.3674 18 14.2402 17.9473 14.1464 17.8536C14.0527 17.7598 14 17.6326 14 17.5C14 17.3674 14.0527 17.2402 14.1464 17.1464C14.2402 17.0527 14.3674 17 14.5 17H15.5C15.6326 17 15.7598 17.0527 15.8536 17.1464C15.9473 17.2402 16 17.3674 16 17.5C16 17.6326 15.9473 17.7598 15.8536 17.8536C15.7598 17.9473 15.6326 18 15.5 18Z" fill="white"/>
    <path d="M10.5 20H9.5C9.36739 20 9.24021 19.9473 9.14645 19.8536C9.05268 19.7598 9 19.6326 9 19.5C9 19.3674 9.05268 19.2402 9.14645 19.1464C9.24021 19.0527 9.36739 19 9.5 19H10.5C10.6326 19 10.7598 19.0527 10.8536 19.1464C10.9473 19.2402 11 19.3674 11 19.5C11 19.6326 10.9473 19.7598 10.8536 19.8536C10.7598 19.9473 10.6326 20 10.5 20Z" fill="white"/>
    <path d="M13 20H12C11.8674 20 11.7402 19.9473 11.6464 19.8536C11.5527 19.7598 11.5 19.6326 11.5 19.5C11.5 19.3674 11.5527 19.2402 11.6464 19.1464C11.7402 19.0527 11.8674 19 12 19H13C13.1326 19 13.2598 19.0527 13.3536 19.1464C13.4473 19.2402 13.5 19.3674 13.5 19.5C13.5 19.6326 13.4473 19.7598 13.3536 19.8536C13.2598 19.9473 13.1326 20 13 20Z" fill="white"/>
    <path d="M15.5 20H14.5C14.3674 20 14.2402 19.9473 14.1464 19.8536C14.0527 19.7598 14 19.6326 14 19.5C14 19.3674 14.0527 19.2402 14.1464 19.1464C14.2402 19.0527 14.3674 19 14.5 19H15.5C15.6326 19 15.7598 19.0527 15.8536 19.1464C15.9473 19.2402 16 19.3674 16 19.5C16 19.6326 15.9473 19.7598 15.8536 19.8536C15.7598 19.9473 15.6326 20 15.5 20Z" fill="white"/>
    <path d="M10.5 22H9.5C9.36739 22 9.24021 21.9473 9.14645 21.8536C9.05268 21.7598 9 21.6326 9 21.5C9 21.3674 9.05268 21.2402 9.14645 21.1464C9.24021 21.0527 9.36739 21 9.5 21H10.5C10.6326 21 10.7598 21.0527 10.8536 21.1464C10.9473 21.2402 11 21.3674 11 21.5C11 21.6326 10.9473 21.7598 10.8536 21.8536C10.7598 21.9473 10.6326 22 10.5 22Z" fill="white"/>
    <path d="M13 22H12C11.8674 22 11.7402 21.9473 11.6464 21.8536C11.5527 21.7598 11.5 21.6326 11.5 21.5C11.5 21.3674 11.5527 21.2402 11.6464 21.1464C11.7402 21.0527 11.8674 21 12 21H13C13.1326 21 13.2598 21.0527 13.3536 21.1464C13.4473 21.2402 13.5 21.3674 13.5 21.5C13.5 21.6326 13.4473 21.7598 13.3536 21.8536C13.2598 21.9473 13.1326 22 13 22Z" fill="white"/>
    <path d="M15.5 22H14.5C14.3674 22 14.2402 21.9473 14.1464 21.8536C14.0527 21.7598 14 21.6326 14 21.5C14 21.3674 14.0527 21.2402 14.1464 21.1464C14.2402 21.0527 14.3674 21 14.5 21H15.5C15.6326 21 15.7598 21.0527 15.8536 21.1464C15.9473 21.2402 16 21.3674 16 21.5C16 21.6326 15.9473 21.7598 15.8536 21.8536C15.7598 21.9473 15.6326 22 15.5 22Z" fill="white"/>
    <path d="M25 29H15C14.8674 29 14.7402 28.9473 14.6464 28.8536C14.5527 28.7598 14.5 28.6326 14.5 28.5C14.5 28.3674 14.5527 28.2402 14.6464 28.1464C14.7402 28.0527 14.8674 28 15 28H24.5V6H15.5V9.5C15.5 9.63261 15.4473 9.75979 15.3536 9.85355C15.2598 9.94732 15.1326 10 15 10C14.8674 10 14.7402 9.94732 14.6464 9.85355C14.5527 9.75979 14.5 9.63261 14.5 9.5V5.5C14.5 5.36739 14.5527 5.24021 14.6464 5.14645C14.7402 5.05268 14.8674 5 15 5H25C25.1326 5 25.2598 5.05268 25.3536 5.14645C25.4473 5.24021 25.5 5.36739 25.5 5.5V28.5C25.5 28.6326 25.4473 28.7598 25.3536 28.8536C25.2598 28.9473 25.1326 29 25 29Z" fill="white"/>
    <path d="M25 6H15C14.6022 6 14.2206 5.84196 13.9393 5.56066C13.658 5.27936 13.5 4.89782 13.5 4.5C13.5 4.10218 13.658 3.72064 13.9393 3.43934C14.2206 3.15804 14.6022 3 15 3H25C25.3978 3 25.7794 3.15804 26.0607 3.43934C26.342 3.72064 26.5 4.10218 26.5 4.5C26.5 4.89782 26.342 5.27936 26.0607 5.56066C25.7794 5.84196 25.3978 6 25 6ZM15 4C14.8674 4 14.7402 4.05268 14.6464 4.14645C14.5527 4.24021 14.5 4.36739 14.5 4.5C14.5 4.63261 14.5527 4.75979 14.6464 4.85355C14.7402 4.94732 14.8674 5 15 5H25C25.1326 5 25.2598 4.94732 25.3536 4.85355C25.4473 4.75979 25.5 4.63261 25.5 4.5C25.5 4.36739 25.4473 4.24021 25.3536 4.14645C25.2598 4.05268 25.1326 4 25 4H15Z" fill="white"/>
    <path d="M20.5 14H19.5C19.3674 14 19.2402 13.9473 19.1464 13.8536C19.0527 13.7598 19 13.6326 19 13.5C19 13.3674 19.0527 13.2402 19.1464 13.1464C19.2402 13.0527 19.3674 13 19.5 13H20.5C20.6326 13 20.7598 13.0527 20.8536 13.1464C20.9473 13.2402 21 13.3674 21 13.5C21 13.6326 20.9473 13.7598 20.8536 13.8536C20.7598 13.9473 20.6326 14 20.5 14Z" fill="white"/>
    <path d="M23 14H22C21.8674 14 21.7402 13.9473 21.6464 13.8536C21.5527 13.7598 21.5 13.6326 21.5 13.5C21.5 13.3674 21.5527 13.2402 21.6464 13.1464C21.7402 13.0527 21.8674 13 22 13H23C23.1326 13 23.2598 13.0527 23.3536 13.1464C23.4473 13.2402 23.5 13.3674 23.5 13.5C23.5 13.6326 23.4473 13.7598 23.3536 13.8536C23.2598 13.9473 23.1326 14 23 14Z" fill="white"/>
    <path d="M20.5 12H19.5C19.3674 12 19.2402 11.9473 19.1464 11.8536C19.0527 11.7598 19 11.6326 19 11.5C19 11.3674 19.0527 11.2402 19.1464 11.1464C19.2402 11.0527 19.3674 11 19.5 11H20.5C20.6326 11 20.7598 11.0527 20.8536 11.1464C20.9473 11.2402 21 11.3674 21 11.5C21 11.6326 20.9473 11.7598 20.8536 11.8536C20.7598 11.9473 20.6326 12 20.5 12Z" fill="white"/>
    <path d="M23 12H22C21.8674 12 21.7402 11.9473 21.6464 11.8536C21.5527 11.7598 21.5 11.6326 21.5 11.5C21.5 11.3674 21.5527 11.2402 21.6464 11.1464C21.7402 11.0527 21.8674 11 22 11H23C23.1326 11 23.2598 11.0527 23.3536 11.1464C23.4473 11.2402 23.5 11.3674 23.5 11.5C23.5 11.6326 23.4473 11.7598 23.3536 11.8536C23.2598 11.9473 23.1326 12 23 12Z" fill="white"/>
    <path d="M20.5 10H19.5C19.3674 10 19.2402 9.94732 19.1464 9.85355C19.0527 9.75979 19 9.63261 19 9.5C19 9.36739 19.0527 9.24021 19.1464 9.14645C19.2402 9.05268 19.3674 9 19.5 9H20.5C20.6326 9 20.7598 9.05268 20.8536 9.14645C20.9473 9.24021 21 9.36739 21 9.5C21 9.63261 20.9473 9.75979 20.8536 9.85355C20.7598 9.94732 20.6326 10 20.5 10Z" fill="white"/>
    <path d="M23 10H22C21.8674 10 21.7402 9.94732 21.6464 9.85355C21.5527 9.75979 21.5 9.63261 21.5 9.5C21.5 9.36739 21.5527 9.24021 21.6464 9.14645C21.7402 9.05268 21.8674 9 22 9H23C23.1326 9 23.2598 9.05268 23.3536 9.14645C23.4473 9.24021 23.5 9.36739 23.5 9.5C23.5 9.63261 23.4473 9.75979 23.3536 9.85355C23.2598 9.94732 23.1326 10 23 10Z" fill="white"/>
    <path d="M20.5 8H19.5C19.3674 8 19.2402 7.94732 19.1464 7.85355C19.0527 7.75979 19 7.63261 19 7.5C19 7.36739 19.0527 7.24021 19.1464 7.14645C19.2402 7.05268 19.3674 7 19.5 7H20.5C20.6326 7 20.7598 7.05268 20.8536 7.14645C20.9473 7.24021 21 7.36739 21 7.5C21 7.63261 20.9473 7.75979 20.8536 7.85355C20.7598 7.94732 20.6326 8 20.5 8Z" fill="white"/>
    <path d="M18 8H17C16.8674 8 16.7402 7.94732 16.6464 7.85355C16.5527 7.75979 16.5 7.63261 16.5 7.5C16.5 7.36739 16.5527 7.24021 16.6464 7.14645C16.7402 7.05268 16.8674 7 17 7H18C18.1326 7 18.2598 7.05268 18.3536 7.14645C18.4473 7.24021 18.5 7.36739 18.5 7.5C18.5 7.63261 18.4473 7.75979 18.3536 7.85355C18.2598 7.94732 18.1326 8 18 8Z" fill="white"/>
    <path d="M23 8H22C21.8674 8 21.7402 7.94732 21.6464 7.85355C21.5527 7.75979 21.5 7.63261 21.5 7.5C21.5 7.36739 21.5527 7.24021 21.6464 7.14645C21.7402 7.05268 21.8674 7 22 7H23C23.1326 7 23.2598 7.05268 23.3536 7.14645C23.4473 7.24021 23.5 7.36739 23.5 7.5C23.5 7.63261 23.4473 7.75979 23.3536 7.85355C23.2598 7.94732 23.1326 8 23 8Z" fill="white"/>
    <path d="M20.5 16H19.5C19.3674 16 19.2402 15.9473 19.1464 15.8536C19.0527 15.7598 19 15.6326 19 15.5C19 15.3674 19.0527 15.2402 19.1464 15.1464C19.2402 15.0527 19.3674 15 19.5 15H20.5C20.6326 15 20.7598 15.0527 20.8536 15.1464C20.9473 15.2402 21 15.3674 21 15.5C21 15.6326 20.9473 15.7598 20.8536 15.8536C20.7598 15.9473 20.6326 16 20.5 16Z" fill="white"/>
    <path d="M23 16H22C21.8674 16 21.7402 15.9473 21.6464 15.8536C21.5527 15.7598 21.5 15.6326 21.5 15.5C21.5 15.3674 21.5527 15.2402 21.6464 15.1464C21.7402 15.0527 21.8674 15 22 15H23C23.1326 15 23.2598 15.0527 23.3536 15.1464C23.4473 15.2402 23.5 15.3674 23.5 15.5C23.5 15.6326 23.4473 15.7598 23.3536 15.8536C23.2598 15.9473 23.1326 16 23 16Z" fill="white"/>
    <path d="M20.5 18H19.5C19.3674 18 19.2402 17.9473 19.1464 17.8536C19.0527 17.7598 19 17.6326 19 17.5C19 17.3674 19.0527 17.2402 19.1464 17.1464C19.2402 17.0527 19.3674 17 19.5 17H20.5C20.6326 17 20.7598 17.0527 20.8536 17.1464C20.9473 17.2402 21 17.3674 21 17.5C21 17.6326 20.9473 17.7598 20.8536 17.8536C20.7598 17.9473 20.6326 18 20.5 18Z" fill="white"/>
    <path d="M23 18H22C21.8674 18 21.7402 17.9473 21.6464 17.8536C21.5527 17.7598 21.5 17.6326 21.5 17.5C21.5 17.3674 21.5527 17.2402 21.6464 17.1464C21.7402 17.0527 21.8674 17 22 17H23C23.1326 17 23.2598 17.0527 23.3536 17.1464C23.4473 17.2402 23.5 17.3674 23.5 17.5C23.5 17.6326 23.4473 17.7598 23.3536 17.8536C23.2598 17.9473 23.1326 18 23 18Z" fill="white"/>
    <path d="M20.5 20H19.5C19.3674 20 19.2402 19.9473 19.1464 19.8536C19.0527 19.7598 19 19.6326 19 19.5C19 19.3674 19.0527 19.2402 19.1464 19.1464C19.2402 19.0527 19.3674 19 19.5 19H20.5C20.6326 19 20.7598 19.0527 20.8536 19.1464C20.9473 19.2402 21 19.3674 21 19.5C21 19.6326 20.9473 19.7598 20.8536 19.8536C20.7598 19.9473 20.6326 20 20.5 20Z" fill="white"/>
    <path d="M23 20H22C21.8674 20 21.7402 19.9473 21.6464 19.8536C21.5527 19.7598 21.5 19.6326 21.5 19.5C21.5 19.3674 21.5527 19.2402 21.6464 19.1464C21.7402 19.0527 21.8674 19 22 19H23C23.1326 19 23.2598 19.0527 23.3536 19.1464C23.4473 19.2402 23.5 19.3674 23.5 19.5C23.5 19.6326 23.4473 19.7598 23.3536 19.8536C23.2598 19.9473 23.1326 20 23 20Z" fill="white"/>
    <path d="M20.5 22H19.5C19.3674 22 19.2402 21.9473 19.1464 21.8536C19.0527 21.7598 19 21.6326 19 21.5C19 21.3674 19.0527 21.2402 19.1464 21.1464C19.2402 21.0527 19.3674 21 19.5 21H20.5C20.6326 21 20.7598 21.0527 20.8536 21.1464C20.9473 21.2402 21 21.3674 21 21.5C21 21.6326 20.9473 21.7598 20.8536 21.8536C20.7598 21.9473 20.6326 22 20.5 22Z" fill="white"/>
    <path d="M23 22H22C21.8674 22 21.7402 21.9473 21.6464 21.8536C21.5527 21.7598 21.5 21.6326 21.5 21.5C21.5 21.3674 21.5527 21.2402 21.6464 21.1464C21.7402 21.0527 21.8674 21 22 21H23C23.1326 21 23.2598 21.0527 23.3536 21.1464C23.4473 21.2402 23.5 21.3674 23.5 21.5C23.5 21.6326 23.4473 21.7598 23.3536 21.8536C23.2598 21.9473 23.1326 22 23 22Z" fill="white"/>
    <path d="M20.5 24H19.5C19.3674 24 19.2402 23.9473 19.1464 23.8536C19.0527 23.7598 19 23.6326 19 23.5C19 23.3674 19.0527 23.2402 19.1464 23.1464C19.2402 23.0527 19.3674 23 19.5 23H20.5C20.6326 23 20.7598 23.0527 20.8536 23.1464C20.9473 23.2402 21 23.3674 21 23.5C21 23.6326 20.9473 23.7598 20.8536 23.8536C20.7598 23.9473 20.6326 24 20.5 24Z" fill="white"/>
    <path d="M23 24H22C21.8674 24 21.7402 23.9473 21.6464 23.8536C21.5527 23.7598 21.5 23.6326 21.5 23.5C21.5 23.3674 21.5527 23.2402 21.6464 23.1464C21.7402 23.0527 21.8674 23 22 23H23C23.1326 23 23.2598 23.0527 23.3536 23.1464C23.4473 23.2402 23.5 23.3674 23.5 23.5C23.5 23.6326 23.4473 23.7598 23.3536 23.8536C23.2598 23.9473 23.1326 24 23 24Z" fill="white"/>
    <path d="M3.5 29C3.36739 29 3.24021 28.9473 3.14645 28.8536C3.05268 28.7598 3 28.6326 3 28.5V25C3 24.8674 3.05268 24.7402 3.14645 24.6464C3.24021 24.5527 3.36739 24.5 3.5 24.5C3.63261 24.5 3.75979 24.5527 3.85355 24.6464C3.94732 24.7402 4 24.8674 4 25V28.5C4 28.6326 3.94732 28.7598 3.85355 28.8536C3.75979 28.9473 3.63261 29 3.5 29Z" fill="white"/>
    <path d="M3.5 26.5C2.8372 26.4992 2.20177 26.2356 1.7331 25.7669C1.26442 25.2982 1.00078 24.6628 1 24C1 22.6128 2.09205 21 3.5 21C4.90795 21 6 22.6128 6 24C5.99922 24.6628 5.73558 25.2982 5.2669 25.7669C4.79823 26.2356 4.1628 26.4992 3.5 26.5ZM3.5 22C2.7273 22 2 23.1267 2 24C2 24.3978 2.15804 24.7794 2.43934 25.0607C2.72064 25.342 3.10218 25.5 3.5 25.5C3.89782 25.5 4.27936 25.342 4.56066 25.0607C4.84196 24.7794 5 24.3978 5 24C5 23.1267 4.2727 22 3.5 22Z" fill="white"/>
    <path d="M28.5 29C28.3674 29 28.2402 28.9473 28.1464 28.8536C28.0527 28.7598 28 28.6326 28 28.5V25C28 24.8674 28.0527 24.7402 28.1464 24.6464C28.2402 24.5527 28.3674 24.5 28.5 24.5C28.6326 24.5 28.7598 24.5527 28.8536 24.6464C28.9473 24.7402 29 24.8674 29 25V28.5C29 28.6326 28.9473 28.7598 28.8536 28.8536C28.7598 28.9473 28.6326 29 28.5 29Z" fill="white"/>
    <path d="M28.5 26.5C27.8372 26.4992 27.2018 26.2356 26.7331 25.7669C26.2644 25.2982 26.0008 24.6628 26 24C26 22.6128 27.092 21 28.5 21C29.9079 21 31 22.6128 31 24C30.9992 24.6628 30.7356 25.2982 30.2669 25.7669C29.7982 26.2356 29.1628 26.4992 28.5 26.5ZM28.5 22C27.7273 22 27 23.1267 27 24C27 24.3978 27.158 24.7794 27.4393 25.0607C27.7206 25.342 28.1022 25.5 28.5 25.5C28.8978 25.5 29.2794 25.342 29.5607 25.0607C29.842 24.7794 30 24.3978 30 24C30 23.1267 29.2727 22 28.5 22Z" fill="white"/>
    <path d="M30 29H2C1.86739 29 1.74021 28.9473 1.64645 28.8536C1.55268 28.7598 1.5 28.6326 1.5 28.5C1.5 28.3674 1.55268 28.2402 1.64645 28.1464C1.74021 28.0527 1.86739 28 2 28H30C30.1326 28 30.2598 28.0527 30.3536 28.1464C30.4473 28.2402 30.5 28.3674 30.5 28.5C30.5 28.6326 30.4473 28.7598 30.3536 28.8536C30.2598 28.9473 30.1326 29 30 29Z" fill="white"/>
  </svg>