<svg width="20" height="20" viewBox="0 0 20 20" fill="none" xmlns="http://www.w3.org/2000/svg">
<g clip-path="url(#clip0_92_3365)">
<path d="M11.603 9.83302L9.35703 8.78502C9.16103 8.69403 9.00002 8.79602 9.00002 9.01302V10.987C9.00002 11.204 9.16103 11.306 9.35703 11.215L11.602 10.167C11.799 10.075 11.799 9.92502 11.603 9.83302ZM10 0.400024C4.69802 0.400024 0.400024 4.69802 0.400024 10C0.400024 15.302 4.69802 19.6 10 19.6C15.302 19.6 19.6 15.302 19.6 10C19.6 4.69802 15.302 0.400024 10 0.400024ZM10 13.9C5.08602 13.9 5.00002 13.457 5.00002 10C5.00002 6.54303 5.08602 6.10002 10 6.10002C14.914 6.10002 15 6.54303 15 10C15 13.457 14.914 13.9 10 13.9Z" fill="#4C2016"/>
</g>
<defs>
<clipPath id="clip0_92_3365">
<rect width="20" height="20" fill="white"/>
</clipPath>
</defs>
</svg>
