<svg width="20" height="20" viewBox="0 0 20 20" fill="none" xmlns="http://www.w3.org/2000/svg">
<path d="M15.9788 1.52063H4.02063C2.64563 1.52063 1.52063 2.64563 1.52063 4.02063V15.98C1.52063 17.355 2.64563 18.48 4.02063 18.48H15.98C17.355 18.48 18.48 17.355 18.48 15.98V4.02063C18.4788 2.64563 17.355 1.52063 15.9788 1.52063ZM15.8181 10.5725H13.8056V17.8538H10.7944V10.5725H9.28813V8.0625H10.7944V6.55625C10.7944 4.50875 11.6444 3.29063 14.0631 3.29063H16.0738V5.8H14.8163C13.8763 5.8 13.8138 6.15188 13.8138 6.80626L13.8056 8.0625H16.0838L15.8181 10.5725Z" fill="#4C2016"/>
</svg>
