<svg width="186" height="48" viewBox="0 0 186 48" fill="none" xmlns="http://www.w3.org/2000/svg">
<path d="M75.1601 16.2304C75.1974 18.3567 74.6372 20.4508 73.5431 22.2744C73.2774 22.7101 72.9835 23.1281 72.6633 23.5255C72.6408 23.507 72.6184 23.4898 72.5959 23.4713C71.4059 22.5013 70.151 21.6136 68.84 20.8146C68.778 20.7763 68.7159 20.7393 68.6538 20.7023C68.5388 20.6323 68.4226 20.5636 68.3063 20.4962C68.5904 19.0712 68.7315 17.6214 68.7277 16.1683C68.7332 14.5159 68.5412 12.8687 68.1557 11.2618C67.8455 9.84798 67.2306 8.51888 66.3538 7.36723C65.992 6.88676 65.5234 6.49716 64.9849 6.22931C64.4464 5.96147 63.8529 5.82276 63.2515 5.82417C62.6501 5.82557 62.0573 5.96707 61.5201 6.23742C60.9828 6.50778 60.516 6.89958 60.1565 7.38174C59.2793 8.54479 58.6649 9.8844 58.3559 11.308C57.9669 12.9408 57.7744 14.6141 57.7825 16.2925C57.7825 16.4087 57.7838 16.5237 57.7852 16.6386C57.7918 17.1076 57.8142 17.5713 57.8499 18.0284C57.8591 18.142 57.8684 18.2556 57.879 18.3692C57.8988 18.5873 57.9226 18.8039 57.949 19.0192L57.953 19.047C57.9662 19.1579 57.982 19.2702 57.9979 19.3812C58.0111 19.4776 58.0256 19.5741 58.0415 19.6705C58.0454 19.7035 58.0507 19.7353 58.056 19.7669C58.0692 19.8449 58.0824 19.9241 58.097 20.0021C58.0996 20.0232 58.1036 20.0444 58.1075 20.0655C58.1458 20.2795 58.1868 20.4909 58.2317 20.7023C58.2713 20.8846 58.3123 21.0656 58.3559 21.2466C58.3704 21.3073 58.3863 21.3694 58.4021 21.4289C58.4048 21.4395 58.4074 21.4487 58.41 21.4593C58.4404 21.5834 58.4748 21.7063 58.5091 21.8265L58.5144 21.845C58.5448 21.9507 58.5765 22.0564 58.6108 22.1595C58.9399 23.2486 59.4636 24.2691 60.1565 25.1715C60.9769 26.2099 62.0043 26.7291 63.2386 26.7291C63.7748 26.7371 64.3064 26.6293 64.7971 26.4129C65.2878 26.1965 65.7259 25.8767 66.0816 25.4754C66.1754 25.375 66.2652 25.268 66.3538 25.1557C66.5372 24.9205 66.7075 24.6752 66.8637 24.4211C67.7493 24.9868 68.6048 25.5985 69.4266 26.2535C69.3566 26.2945 69.2866 26.3328 69.2165 26.3711C68.857 26.5632 68.488 26.7369 68.1108 26.8916C66.5637 27.5189 64.908 27.8345 63.2386 27.8203C61.1563 27.8435 59.1012 27.3453 57.2607 26.3711C55.4755 25.4263 53.9843 24.0091 52.95 22.2743C52.4484 21.4443 52.0613 20.5502 51.7993 19.6164C51.5912 18.8766 51.4563 18.1182 51.3964 17.352C51.3647 16.9847 51.3501 16.6109 51.3501 16.2304C51.3129 14.126 51.8672 12.0534 52.95 10.2485C53.9913 8.52738 55.4815 7.12216 57.2607 6.18352C59.1094 5.23114 61.159 4.73425 63.2386 4.73425C65.3183 4.73425 67.3678 5.23114 69.2165 6.18352C71.0411 7.14277 72.5631 8.59025 73.6126 10.3644C74.6622 12.1385 75.1979 14.1694 75.1601 16.2304Z" fill="#96402B"/>
<path d="M96.0896 5.02346V19.0978C96.0896 21.1132 95.7303 22.7696 95.0116 24.0671C94.2929 25.365 93.0167 26.3985 91.4592 27.0621C90.1537 27.6183 88.3401 27.8521 86.6782 27.8521C85.1086 27.8617 83.5544 27.5433 82.1151 26.9172C80.6607 26.2697 79.443 25.1867 78.6301 23.8178C77.7318 22.3744 77.2826 20.5208 77.2826 18.257V5.02346C77.2828 5.01565 77.2836 5.00788 77.2852 5.00024H83.1733C83.1749 5.00788 83.1758 5.01566 83.176 5.02346V18.818C83.176 21.0606 83.6194 22.7374 84.5063 23.8483C85.3927 24.9605 86.6667 25.5162 88.3282 25.5153C89.9901 25.5153 91.3319 24.9805 92.3536 23.9107C93.3748 22.8413 93.8856 21.2268 93.886 19.0673V5.02346C93.8858 5.0157 93.8863 5.00793 93.8874 5.00024H95.692C95.6933 5.00759 96.0896 5.01612 96.0896 5.02346Z" fill="#96402B"/>
<path d="M166.24 5.02346V19.0978C166.24 21.1132 165.881 22.7696 165.162 24.0671C164.444 25.365 163.167 26.3985 161.61 27.0621C160.304 27.6183 158.491 27.8521 156.829 27.8521C155.259 27.8617 153.705 27.5433 152.266 26.9172C150.811 26.2697 149.594 25.1867 148.781 23.8178C147.882 22.3744 147.433 20.5208 147.433 18.257V5.02346C147.433 5.01565 147.434 5.00788 147.436 5.00024H153.324C153.326 5.00788 153.327 5.01566 153.327 5.02346V18.818C153.327 21.0606 153.77 22.7374 154.657 23.8483C155.543 24.9605 156.817 25.5162 158.479 25.5153C160.141 25.5153 161.483 24.9805 162.504 23.9107C163.525 22.8413 164.036 21.2268 164.037 19.0673V5.02346C164.037 5.0157 164.037 5.00793 164.038 5.00024H165.843C165.844 5.00759 166.24 5.01612 166.24 5.02346Z" fill="#96402B"/>
<path d="M185.534 18.256C185.128 17.3711 184.53 16.5884 183.782 15.9653C182.783 15.1348 181.679 14.4384 180.499 13.8938C179.825 13.6031 179.096 13.2812 178.31 12.9281C177.187 12.4512 176.295 12.0306 175.632 11.6665C175.023 11.345 174.476 10.9178 174.017 10.4048C173.614 9.96173 173.391 9.38396 173.393 8.78515C173.413 8.25199 173.602 7.73892 173.932 7.32008C174.308 6.85554 174.802 6.50056 175.363 6.29224C176.056 6.02932 176.794 5.90239 177.536 5.91836C179.084 5.91836 180.898 6.18787 182.087 6.84842C183.091 7.44319 184.022 8.15252 184.861 8.96217L185.012 6.29225L184.338 6.04261C183.217 5.66 182.075 5.33763 180.919 5.07689C179.796 4.84105 178.65 4.72633 177.502 4.73468C175.616 4.73468 173.995 5.02048 172.636 5.5921C171.277 6.16278 170.249 6.93606 169.554 7.91194C168.862 8.87716 168.475 10.0275 168.443 11.2147C168.39 11.9221 168.489 12.6327 168.733 13.2988C168.977 13.965 169.361 14.5714 169.858 15.0775C170.867 16.1172 172.304 17.0415 174.167 17.8505C174.303 17.9239 174.443 17.9866 174.589 18.0381C174.743 18.0925 174.895 18.1547 175.043 18.2244C176.301 18.8056 177.322 19.3147 178.108 19.7515C178.853 20.1546 179.52 20.6874 180.078 21.3249C180.589 21.8963 180.881 22.6301 180.903 23.3964C180.947 24.4348 180.604 25.2393 179.876 25.81C179.146 26.3821 178.198 26.6507 177.03 26.6674C172.039 26.7386 169.588 23.2862 168.209 21.8776C167.565 23.8972 165.151 27.232 162.691 28.6305C158.69 30.9049 153.778 31.249 149.323 30.1102C147.838 29.7434 146.392 29.2351 145.004 28.5923C143.444 27.8782 141.951 27.0263 140.543 26.0465C139.831 25.5459 134.875 21.9274 133.007 21.0132C132.043 20.5353 131.051 20.1153 130.036 19.7555C130.636 19.6789 131.226 19.5444 131.8 19.3539C132.088 19.2575 132.371 19.1459 132.647 19.0196C133.825 18.4882 134.816 17.6151 135.492 16.5135C136.189 15.3959 136.536 14.0211 136.536 12.3891C136.57 11.0218 136.233 9.67075 135.56 8.47999C134.925 7.39001 133.99 6.50612 132.866 5.93425C131.621 5.31918 130.246 5.01415 128.858 5.04516H118.807V27.4773H124.62V24.1838C124.616 24.1098 124.614 24.0345 124.614 23.9579L124.616 22.8733H124.614V6.38869H126.871C128.084 6.38869 129.01 6.98716 129.649 8.18409C130.29 9.38365 130.61 10.9033 130.61 12.7431C130.61 14.6389 130.301 16.1326 129.683 17.2243C129.073 18.3023 128.207 18.8479 127.086 18.8611C126.765 18.7792 126.442 18.7026 126.118 18.6299V20.457C129.775 21.4254 133.472 23.9539 136.613 26.2671C137.372 26.826 138.296 27.5182 139.079 28.0295C144.415 31.5303 151.203 33.5635 157.635 32.105C160.501 31.463 163.478 29.9 165.362 28.2514C166.34 27.4313 167.194 26.4731 167.896 25.407C171.503 27.6393 175.211 28.1319 177.034 28.0783C178.594 28.0387 180.133 27.7136 181.576 27.1193C182.816 26.6768 183.904 25.8872 184.708 24.8443C185.494 23.8165 185.921 22.5342 185.988 20.9973C186.047 20.0609 185.891 19.1235 185.534 18.256Z" fill="#96402B"/>
<path d="M144.7 4.99927V27.0037C142.668 26.0865 140.63 24.3031 139.019 23.2586V4.99927H144.7Z" fill="#96402B"/>
<path d="M53.3402 27.4768H47.0532L45.773 24.54C45.7294 24.4145 45.6766 24.2824 45.6132 24.1436L44.5616 21.7432L44.0305 20.5305C41.227 21.3204 38.6039 22.6481 36.3074 24.4396C35.6637 24.9449 35.0505 25.4879 34.4711 26.0659C34.0153 26.5177 33.5807 26.988 33.1672 27.4768H31.5885L32.7022 24.8518L37.2745 14.0743L39.2217 9.52051L41.1347 5.04468H43.4241L47.0809 13.361L47.0981 13.3993L48.3624 16.2726C46.4808 16.5287 44.633 16.9903 42.8521 17.6492C42.8283 17.6584 42.8045 17.6664 42.7808 17.6756L42.6473 17.3731L40.3949 12.234L39.4582 14.4205L39.4384 14.4654L36.6258 21.0286L36.0274 22.4249L35.9837 22.5267L35.4619 23.7434C37.7103 21.594 40.382 19.9369 43.3066 18.8778C45.1157 18.2091 46.997 17.7546 48.9119 17.5237L49.8288 19.6097L50.3968 20.9017L51.8091 24.112C51.911 24.347 52.0257 24.5763 52.1526 24.7989L52.1565 24.8055L53.3402 27.4768Z" fill="#96402B"/>
<path d="M32.5951 27.2852L32.5541 27.3816L32.5396 27.3724C32.5581 27.3433 32.5753 27.3142 32.5951 27.2852Z" fill="#96402B"/>
<path d="M118.074 27.4768H111.787L110.506 24.54C110.463 24.4145 110.41 24.2824 110.347 24.1436L108.933 20.9149C106.854 21.6605 104.863 22.6344 102.999 23.8186C102.428 24.1661 101.861 24.5981 101.313 24.9772C101.152 25.1001 100.346 25.7475 100.17 25.8836C99.7436 26.2402 99.1979 26.7515 98.7303 27.1768C98.6233 27.2733 98.5202 27.3658 98.4238 27.4516C98.4145 27.4596 98.4053 27.4689 98.396 27.4768C95.7433 29.9089 92.4934 31.9077 88.8248 32.5484L88.2105 32.6581L87.5909 32.7307C87.1985 32.7849 86.7295 32.8047 86.3451 32.8351C85.0886 32.8805 83.8305 32.816 82.5852 32.6422C80.0893 32.2685 77.669 31.4988 75.4157 30.362C73.6675 29.4695 72.0219 28.3891 70.5079 27.1399C70.4273 27.0738 70.3467 27.0078 70.2674 26.9404C69.99 26.7066 69.7099 26.4776 69.4272 26.2534C68.6054 25.5984 67.7499 24.9868 66.8643 24.4211C66.7784 24.3643 66.6925 24.3101 66.6054 24.2559C66.324 24.0763 66.0373 23.9019 65.748 23.7341C63.829 22.6348 61.7917 21.7564 59.6749 21.1157C59.6591 21.0576 59.6445 20.9995 59.63 20.94C59.589 20.7683 59.5494 20.5979 59.5137 20.4301C59.3659 19.734 59.2582 19.0301 59.1914 18.3216C61.8428 18.9366 64.4036 19.8918 66.8101 21.1633C67.2078 21.3746 67.5993 21.5966 67.9846 21.8292C68.0453 21.8648 68.1061 21.9018 68.1669 21.9387C69.429 22.7078 70.6367 23.5628 71.7814 24.4977C72.1262 24.7712 72.4697 25.0473 72.8118 25.3221C73.7921 26.1108 74.7723 26.8955 75.808 27.6155C77.8148 29.0357 79.9655 30.3382 82.3448 31.1032C86.0306 32.3041 89.6359 31.8972 93.0641 30.185C93.3125 30.0582 93.5595 29.9261 93.8026 29.786C94.6943 29.0621 95.7089 27.9418 96.8768 25.6074C99.2547 20.8515 103.955 9.52051 103.955 9.52051L105.868 5.04468H108.158L111.814 13.361L111.831 13.3993L113.394 16.953C111.835 17.2304 109.207 18.3536 108.07 18.9465L107.381 17.3731L105.128 12.234L104.192 14.4205L104.172 14.4654L100.761 22.4249L100.717 22.5267L100.024 24.1436C100.018 24.1582 100.013 24.1714 100.008 24.186L100.006 24.1899L99.5943 25.1556C102.221 22.8829 105.207 21.0636 108.431 19.7722C110.269 19.0364 112.228 18.3501 113.927 18.1657L114.529 19.5318L116.543 24.112C116.644 24.347 116.759 24.5763 116.886 24.7989L116.89 24.8055L118.074 27.4768Z" fill="#96402B"/>
<path d="M38.9021 5.04564L33.2161 18.4481L31.2689 23.0019L29.3559 27.4777H27.0665L23.4097 19.1615L23.3925 19.1231L21.4651 14.7398C21.4624 14.7332 21.4588 14.7251 21.4558 14.7186C13.4402 -2.9873 0 2.40475 0 2.40475V1.51698C0 1.51698 9.07426 -1.12228 17.4123 3.43568C24.2856 7.19295 28.4642 16.5642 30.0957 20.2883L31.0324 18.1019L31.0522 18.057L34.4633 10.0988L34.5069 9.99576L35.2004 8.37875C35.2057 8.3642 35.211 8.35101 35.2163 8.33647L35.2176 8.33249L36.6219 5.04564H38.9021Z" fill="#96402B"/>
<path d="M32.2751 42.2773C32.2898 42.6222 32.2275 42.9659 32.0927 43.2837C31.958 43.6014 31.7542 43.8851 31.4961 44.1143C30.922 44.5906 30.1905 44.8351 29.4453 44.7998H28.4037V47.5634H27.34V39.8865H29.5331C30.3737 39.8865 31.0409 40.0985 31.5347 40.5226C31.7821 40.7406 31.9772 41.0115 32.1054 41.3154C32.2336 41.6192 32.2916 41.948 32.2751 42.2773ZM31.2003 42.2884C31.208 42.0895 31.1706 41.8914 31.0908 41.7091C31.011 41.5267 30.891 41.3648 30.7397 41.2354C30.3884 40.9575 29.9478 40.8171 29.5005 40.8407H28.3927V43.8456H29.4453C29.9091 43.8696 30.365 43.7189 30.7231 43.4233C30.8816 43.2811 31.0066 43.1056 31.0891 42.9094C31.1716 42.7132 31.2096 42.5011 31.2003 42.2884Z" fill="#96402B"/>
<path d="M40.5769 47.5634H39.5242V44.1308H34.8964V47.5634H33.8326V39.8865H34.8964V43.1546H39.5242V39.8865H40.5769V47.5634Z" fill="#96402B"/>
<path d="M46.2906 47.7167C45.3764 47.7044 44.4946 47.3763 43.7948 46.788C43.095 46.1997 42.6202 45.3874 42.4511 44.4889C42.2819 43.5904 42.4288 42.6611 42.8668 41.8586C43.3048 41.056 44.0069 40.4297 44.8541 40.0859C45.7012 39.7421 46.6412 39.7019 47.5146 39.9722C48.388 40.2425 49.141 40.8066 49.6459 41.5688C50.1507 42.3311 50.3764 43.2445 50.2845 44.1541C50.1926 45.0637 49.7889 45.9136 49.1419 46.5595C48.7709 46.9369 48.3264 47.2343 47.836 47.4333C47.3457 47.6324 46.8197 47.7288 46.2906 47.7167ZM46.2685 40.7198C45.8848 40.7138 45.504 40.7883 45.1508 40.9384C44.7976 41.0886 44.4798 41.311 44.2178 41.5915C43.6751 42.1692 43.3731 42.932 43.3731 43.7246C43.3731 44.5172 43.6751 45.28 44.2178 45.8577C44.4832 46.1397 44.8048 46.363 45.1618 46.5132C45.5188 46.6634 45.9033 46.7371 46.2906 46.7296C46.6766 46.7345 47.0595 46.6596 47.4153 46.5095C47.771 46.3595 48.0919 46.1376 48.3579 45.8577C48.6375 45.5806 48.8579 45.2496 49.0058 44.8849C49.1538 44.5201 49.2262 44.1291 49.2186 43.7355C49.2265 43.3394 49.1544 42.9459 49.0065 42.5784C48.8586 42.2109 48.638 41.8771 48.3579 41.597C48.0892 41.3143 47.7648 41.0903 47.4052 40.9393C47.0455 40.7883 46.6585 40.7136 46.2685 40.7198ZM48.1659 39.0966H47.6064L46.3121 38.4166L45.0183 39.0966H44.4368V39.0856L45.7637 37.7805H46.8385L48.1659 39.0856L48.1659 39.0966ZM48.418 36.7496L49.1855 37.956H48.6481L47.047 36.7717V36.7496L48.418 36.7496Z" fill="#96402B"/>
<path d="M53.0138 47.5634H52.0047V39.8865H52.9807L57.8281 45.4028V39.8865H58.8261V47.6182H58.4642L53.0138 41.4109L53.0138 47.5634Z" fill="#96402B"/>
<path d="M69.2992 39.8865H70.4396L66.6013 47.7388H66.3602L62.6422 39.8865H63.8267L66.5246 45.8307L69.2992 39.8865Z" fill="#96402B"/>
<path d="M72.972 47.5634H71.9083V39.8865H72.972V47.5634Z" fill="#96402B"/>
<path d="M76.2308 47.5634H75.2217V39.8865H76.1977L81.0451 45.4028V39.8865H82.0432V47.6182H81.6812L76.2308 41.4109V47.5634Z" fill="#96402B"/>
<path d="M90.9911 47.5634H89.9384V44.1308H85.3106V47.5634H84.2469V39.8865H85.3106V43.1546H89.9384V39.8865H90.9911V47.5634Z" fill="#96402B"/>
<path d="M101.761 39.8865V40.8407H98.7446V47.5633H97.6919V40.8407H94.6873V39.8865H101.761Z" fill="#96402B"/>
<path d="M109.162 47.563H107.835L105.138 44.4924H104.304V47.563H103.24V39.8862H105.478C106.155 39.8533 106.821 40.0721 107.347 40.5005C107.757 40.8831 108.007 41.4057 108.049 41.9645C108.09 42.5232 107.92 43.0772 107.572 43.5162C107.233 43.9147 106.776 44.1951 106.267 44.3167L109.162 47.563ZM106.98 42.1565C106.986 41.9746 106.95 41.7938 106.876 41.6275C106.802 41.4613 106.691 41.314 106.552 41.1968C106.24 40.9427 105.846 40.8119 105.444 40.8293H104.282V43.5601H105.39C105.808 43.5775 106.217 43.4365 106.536 43.1653C106.68 43.0405 106.794 42.8852 106.871 42.7108C106.948 42.5363 106.985 42.347 106.98 42.1565Z" fill="#96402B"/>
<path d="M114.559 47.5629H110.205V39.886H114.526L114.844 40.8402H111.269V43.1872H114.262V44.1304H111.269V46.6087H114.877L114.559 47.5629ZM114.351 39.0965H113.791L112.497 38.2739L111.203 39.0965H110.622V39.0855L112.004 37.55H112.969L114.351 39.0855V39.0965Z" fill="#96402B"/>
<path d="M117.619 47.5634H116.61V39.8865H117.586L122.433 45.4028V39.8865H123.431V47.6182H123.069L117.619 41.4109V47.5634Z" fill="#96402B"/>
<path d="M127.171 44.021V43.2644H128.224V39.8865H130.757C132.088 39.8865 133.144 40.2301 133.927 40.9174C134.709 41.6049 135.1 42.5334 135.1 43.703C135.118 44.229 135.018 44.7524 134.809 45.2352C134.599 45.718 134.285 46.148 133.888 46.4941C133.08 47.2069 132.036 47.5633 130.757 47.5633H128.224V44.021H127.171ZM131.36 43.2644V44.021H129.287V46.5984H130.779C131.628 46.6339 132.459 46.3501 133.11 45.8031C133.394 45.535 133.621 45.2118 133.776 44.8533C133.932 44.4948 134.013 44.1084 134.014 43.7176C134.016 43.3267 133.938 42.9397 133.785 42.58C133.633 42.2202 133.408 41.8953 133.126 41.6249C132.534 41.1094 131.737 40.8516 130.735 40.8517H129.287V43.2644H131.36Z" fill="#96402B"/>
<path d="M136.799 47.5631H135.702L139.278 39.8424H140.254L143.697 47.5631H142.557L141.701 45.5891H137.687L136.799 47.5631ZM141.603 39.1406H141.043L139.749 38.4606L138.455 39.1406H137.874V39.1295L139.201 37.8245H140.275L141.603 39.1295L141.603 39.1406ZM139.727 41.0487L138.104 44.6569H141.295L139.727 41.0487ZM141.525 37.9999H140.999L141.767 36.7936H143.127V36.8156L141.525 37.9999Z" fill="#96402B"/>
<path d="M150.563 39.8865V40.8407H147.547V47.5633H146.494V40.8407H143.489V39.8865H150.563Z" fill="#96402B"/>
<path d="M160.147 39.8865H161.287L157.449 47.7388H157.208L153.49 39.8865H154.674L157.372 45.8307L160.147 39.8865Z" fill="#96402B"/>
<path d="M162.033 47.5629H160.937L164.512 39.8422H165.488L168.932 47.5629H167.791L166.936 45.5888H162.922L162.033 47.5629ZM164.38 37.55L165.28 39.0965H164.742L162.922 37.5721V37.55H164.38ZM164.962 41.0485L163.339 44.6567H166.53L164.962 41.0485Z" fill="#96402B"/>
<path d="M171.377 47.5634H170.368V39.8865H171.344L176.191 45.4028V39.8865H177.189V47.6182H176.827L171.377 41.4109V47.5634Z" fill="#96402B"/>
<path d="M185.996 43.5713V46.7189C185.531 47.0364 185.021 47.2822 184.483 47.4482C183.952 47.6017 183.401 47.6774 182.848 47.673C181.678 47.673 180.728 47.313 179.997 46.5928C179.266 45.8727 178.9 44.924 178.9 43.7468C178.884 43.2142 178.982 42.6843 179.187 42.1925C179.393 41.7008 179.7 41.2586 180.09 40.8955C180.911 40.1391 181.996 39.7371 183.112 39.7769C183.581 39.7737 184.048 39.8271 184.505 39.9358C184.955 40.049 185.389 40.2166 185.798 40.4348V41.6083H185.777C185.344 41.3458 184.882 41.1342 184.4 40.9777C183.973 40.8437 183.527 40.7753 183.079 40.7749C182.674 40.7637 182.27 40.833 181.891 40.9789C181.513 41.1248 181.167 41.3443 180.874 41.6248C180.587 41.8926 180.359 42.2181 180.206 42.58C180.053 42.942 179.978 43.3321 179.986 43.725C179.969 44.1187 180.032 44.5117 180.172 44.8802C180.311 45.2488 180.524 45.5851 180.798 45.8689C181.074 46.142 181.404 46.3555 181.766 46.496C182.128 46.6366 182.515 46.7012 182.904 46.686C183.271 46.6892 183.637 46.6487 183.994 46.5652C184.331 46.4834 184.654 46.3542 184.954 46.1815V44.5365H182.75V43.5713L185.996 43.5713Z" fill="#96402B"/>
</svg>
