<svg width="36" height="32" viewBox="0 0 36 32" fill="none" xmlns="http://www.w3.org/2000/svg">
<g clip-path="url(#clip0_1402_3932)">
<path d="M30 0H2C0.89543 0 0 0.89543 0 2V30C0 31.1046 0.89543 32 2 32H30C31.1046 32 32 31.1046 32 30V2C32 0.89543 31.1046 0 30 0Z" fill="#F99D25"/>
<path d="M29.9497 10.7065L25.7071 14.9491C25.3166 15.3397 25.3166 15.9728 25.7071 16.3634L29.9497 20.606C30.3403 20.9965 30.9734 20.9965 31.364 20.606L35.6066 16.3634C35.9971 15.9728 35.9971 15.3397 35.6066 14.9491L31.364 10.7065C30.9734 10.316 30.3403 10.316 29.9497 10.7065Z" fill="#F99D25"/>
</g>
<defs>
<clipPath id="clip0_1402_3932">
<rect width="36" height="32" fill="white"/>
</clipPath>
</defs>
</svg>
